<?xml version="1.0" encoding="UTF-8"?>
<svg id="Layer_1" data-name="Layer 1" xmlns="http://www.w3.org/2000/svg" viewBox="0 0 990 617.83">
  <defs>
    <style>
      .cls-1 {
        fill: #e60060;
      }

      .cls-2 {
        fill: #00aeef;
      }

      .cls-3 {
        fill: #050f34;
      }
    </style>
  </defs>
  <g>
    <path class="cls-3" d="M39.46,24.02c0,6.11-4.22,10.22-10.87,10.22h-13.72V13.69h13.72c6.65,0,10.87,4.21,10.87,10.32M54.13,24.02C54.13,11.27,44.84.63,29.33.63H.21v75h14.67v-28.23h14.46c15.51,0,24.79-10.64,24.79-23.39M95.81,50.04h-18.68l9.49-27.28,9.19,27.28ZM104.14,75.63h15.3L92,.63h-11.5l-27.33,75h15.3l4.54-13.27h26.7l4.43,13.27ZM128.73,75.63h49.49v-13.06h-34.82v-18.23h29.65v-13.06h-29.65V13.69h34.82V.63h-49.49v75ZM205.13,27.6c-1.58-1.47-2.21-3.48-2.21-5.37,0-5.16,3.8-9.48,11.61-9.48,4.96,0,10.66.63,15.4,5.16l9.28-9.16c-6.44-6.22-13.93-8.75-24.27-8.75-16.25,0-26.17,9.38-26.17,22.76,0,6.32,1.8,11.16,5.38,14.74,3.38,3.27,8.13,5.27,14.56,6.22l9.07,1.26c3.49.53,5.18,1.27,6.65,2.64,1.58,1.47,2.32,3.69,2.32,6.32,0,6.01-4.65,9.27-13.3,9.27-6.97,0-13.4-1.58-18.15-6.32l-9.49,9.48c7.38,7.48,16.04,9.9,27.43,9.9,15.72,0,27.86-8.22,27.86-22.75,0-6.64-1.79-12.11-5.81-15.91-3.16-2.95-7.49-4.84-14.35-5.79l-8.87-1.27c-3.06-.42-5.48-1.58-6.96-2.95M267.49,27.6c-1.58-1.47-2.21-3.48-2.21-5.37,0-5.16,3.8-9.48,11.61-9.48,4.96,0,10.66.63,15.4,5.16l9.29-9.16c-6.44-6.22-13.93-8.75-24.27-8.75-16.25,0-26.17,9.38-26.17,22.76,0,6.32,1.79,11.16,5.38,14.74,3.38,3.27,8.12,5.27,14.56,6.22l9.08,1.26c3.48.53,5.17,1.27,6.64,2.64,1.59,1.47,2.32,3.69,2.32,6.32,0,6.01-4.64,9.27-13.3,9.27-6.97,0-13.4-1.58-18.15-6.32l-9.5,9.48c7.39,7.48,16.04,9.9,27.43,9.9,15.72,0,27.85-8.22,27.85-22.75,0-6.64-1.79-12.11-5.8-15.91-3.16-2.95-7.49-4.84-14.34-5.79l-8.86-1.27c-3.06-.42-5.49-1.58-6.97-2.95M317.3,75.63h48.75v-13.06h-34.09V.63h-14.66v75ZM377.98,75.63h49.49v-13.06h-34.82v-18.23h29.65v-13.06h-29.65V13.69h34.82V.63h-49.49v75ZM480.97,23.59c0,5.8-4.22,9.9-10.66,9.9h-13.82V13.69h13.82c6.44,0,10.66,4.11,10.66,9.9M495.63,23.59c0-12.54-9.08-22.96-24.38-22.96h-29.44v75h14.67v-29.91h10.55l14.67,29.91h16.98l-16.78-32.34c7.28-2.63,13.72-9.16,13.72-19.7"/>
    <path class="cls-3" d="M861.71,512.42c0,11.6-8.54,19.82-21.56,19.82h-27.96v-39.63h27.96c13.02,0,21.56,8.22,21.56,19.81M897.57,616.56l-33.94-64.72c14.73-5.27,27.75-18.34,27.75-39.42,0-25.09-18.36-45.96-49.31-45.96h-59.55v150.1h29.67v-59.87h21.35l29.67,59.87h34.36ZM722.54,541.51c0,28.88-1.71,35.84-7.47,42.16-4.27,4.85-10.89,8.01-19,8.01s-14.94-3.16-19.21-8.01c-5.76-6.32-7.26-13.28-7.26-42.16s1.49-35.84,7.26-42.16c4.27-4.85,11.1-8.01,19.21-8.01s14.73,3.16,19,8.01c5.76,6.32,7.47,13.28,7.47,42.16M752.21,541.51c0-25.93.21-44.69-15.15-59.87-10.67-10.54-23.69-16.44-40.99-16.44s-30.52,5.9-41.19,16.44c-15.37,15.18-14.94,33.94-14.94,59.87s-.43,44.69,14.94,59.87c10.67,10.54,23.91,16.44,41.19,16.44s30.31-5.9,40.99-16.44c15.37-15.18,15.15-33.94,15.15-59.87M625.21,492.6v-26.14h-109.08v26.14h39.7v123.96h29.67v-123.96h39.7ZM492.01,466.46h-29.67v150.1h29.67v-150.1ZM426.91,616.56v-150.1h-29.67v91.92l-60.2-91.92h-26.47v150.1h29.67v-92.12l60.2,92.12h26.47ZM250.59,541.51c0,28.88-1.7,35.84-7.47,42.16-4.27,4.85-10.89,8.01-19,8.01s-14.95-3.16-19.21-8.01c-5.76-6.32-7.26-13.28-7.26-42.16s1.49-35.84,7.26-42.16c4.27-4.85,11.1-8.01,19.21-8.01s14.73,3.16,19,8.01c5.76,6.32,7.47,13.28,7.47,42.16M280.26,541.51c0-25.93.21-44.69-15.15-59.87-10.67-10.54-23.69-16.44-40.98-16.44s-30.52,5.9-41.2,16.44c-15.37,15.18-14.94,33.94-14.94,59.87s-.43,44.69,14.94,59.87c10.67,10.54,23.91,16.44,41.2,16.44s30.31-5.9,40.98-16.44c15.37-15.18,15.15-33.94,15.15-59.87M137.68,616.56v-150.1h-29.24l-39.49,81.17-39.7-81.17H0v150.1h29.67v-87.49l29.25,56.92h20.06l29.03-56.92v87.49h29.67Z"/>
    <path class="cls-3" d="M990,436.27l-54.01-90.44,50.38-59.66h-36.07l-53.58,65.35v-65.35h-29.67v150.1h29.67v-45.11l19.64-23.19,39.06,68.3h34.58ZM806.64,332.12c0,11.6-8.54,19.82-21.56,19.82h-27.97v-39.63h27.97c13.02,0,21.56,8.22,21.56,19.81M842.5,436.27l-33.94-64.72c14.73-5.27,27.75-18.34,27.75-39.42,0-25.09-18.36-45.96-49.31-45.96h-59.55v150.1h29.67v-59.87h21.35l29.67,59.87h34.37ZM667.47,361.22c0,28.88-1.7,35.84-7.47,42.16-4.27,4.85-10.89,8.01-19,8.01s-14.95-3.16-19.21-8.01c-5.76-6.32-7.26-13.28-7.26-42.16s1.49-35.84,7.26-42.16c4.27-4.85,11.1-8.01,19.21-8.01s14.73,3.16,19,8.01c5.76,6.32,7.47,13.28,7.47,42.16M697.14,361.22c0-25.93.21-44.69-15.15-59.87-10.67-10.54-23.69-16.44-40.98-16.44s-30.52,5.9-41.2,16.44c-15.37,15.18-14.94,33.94-14.94,59.87s-.43,44.69,14.94,59.87c10.67,10.54,23.91,16.44,41.2,16.44s30.31-5.9,40.98-16.44c15.37-15.18,15.15-33.94,15.15-59.87M573.13,286.17h-30.95l-23.69,94.66-27.75-94.66h-22.2l-27.75,94.66-23.48-94.66h-30.95l40.56,150.1h24.76l27.96-91.07,27.96,91.07h24.76l40.77-150.1ZM378.67,312.31v-26.14h-109.08v26.14h39.7v123.96h29.67v-123.96h39.7ZM251.88,436.27v-26.14h-70.44v-36.47h59.98v-26.14h-59.98v-35.21h70.44v-26.14h-100.11v150.1h100.11ZM116.33,436.27v-150.1h-29.67v91.92l-60.2-91.92H0v150.1h29.67v-92.12l60.19,92.12h26.47Z"/>
    <path class="cls-3" d="M498.62,194v-21.5h-56.57v24.45h26.9v5.27c0,7.38-1.71,15.18-6.62,20.45-4.91,5.27-11.32,8.43-20.28,8.43-8.11,0-14.73-2.95-19-7.8-5.76-6.32-7.26-13.49-7.26-42.38s1.49-35.84,7.26-42.16c4.27-4.85,10.89-8.01,19-8.01,11.74,0,17.93,4.43,26.47,12.86l20.06-19.82c-13.66-13.49-25.4-19.18-46.53-19.18-17.08,0-30.31,5.9-40.98,16.44-15.37,15.18-14.94,33.94-14.94,59.87s-.43,44.69,14.94,59.87c10.67,10.54,24.34,16.44,40.98,16.44s31.59-6.12,42.48-17.29c10.67-10.96,14.09-24.24,14.09-45.96M371.41,132.02v-26.14h-109.08v26.14h39.71v123.96h29.67v-123.96h39.7ZM213.24,151.83c0,11.59-8.54,19.82-21.56,19.82h-27.96v-39.64h27.96c13.02,0,21.56,8.22,21.56,19.82M249.1,255.98l-33.94-64.72c14.73-5.27,27.75-18.34,27.75-39.42,0-25.09-18.36-45.96-49.31-45.96h-59.55v150.1h29.67v-59.87h21.34l29.67,59.87h34.37ZM79.41,152.68c0,12.23-8.54,20.45-21.99,20.45h-27.75v-41.11h27.75c13.45,0,21.99,8.43,21.99,20.66M109.08,152.68c0-25.51-18.78-46.8-50.16-46.8H0v150.1h29.67v-56.5h29.24c31.38,0,50.16-21.29,50.16-46.8"/>
  </g>
  <polygon class="cls-3" points="745.32 216.35 768.52 196.05 618.73 106.17 745.32 216.35"/>
  <g>
    <path class="cls-2" d="M615.69,43.88c-28.13,25.79-47.16,61.48-51.45,102.18-4.27,40.65,7.06,79.33,29.16,110.28l22.84-14.73c-15.1-18.67-24.42-42.16-25.15-67.91-1.18-41.22,19.92-77.92,52.5-98.86-.21.14-.43.25-.64.39l-27.26-31.36Z"/>
    <path class="cls-3" d="M843.04,48.36c-5.27-5.22-10.92-10.06-16.86-14.54C797.43,12.14,761.31-.36,722.36.74c-41.29,1.16-78.57,17.4-106.67,43.15l27.27,31.36c.21-.14.42-.26.63-.4,1.8-1.16,3.63-2.27,5.5-3.33.33-.19.67-.37,1-.56,1.82-1.01,3.68-1.96,5.56-2.87.41-.2.81-.41,1.22-.6,14.01-6.59,29.59-10.49,46.1-10.95,30.79-.87,59.09,10.31,80.31,29.19,2.74,2.45,5.35,5.04,7.85,7.73.09.11.19.2.28.3,1.07,1.16,2.1,2.35,3.12,3.55.29.34.58.67.86,1.02.41.49.8.99,1.2,1.48l46.45-51.45Z"/>
    <path class="cls-1" d="M796.6,99.81c14.89,18.59,24.08,41.9,24.81,67.43.59,20.37-4.29,39.62-13.28,56.43l53.32,32.67c25.01-35.35,35.85-80.42,26.33-126.05-6.74-32.28-22.81-60.27-44.73-81.93"/>
  </g>
</svg>