<?xml version="1.0" encoding="UTF-8" standalone="no"?>
<svg
   version="1.1"
   width="1024"
   height="1024"
   viewBox="0 0 1024 1024"
   xml:space="preserve"
   id="svg9"
   sodipodi:docname="TracyHomeLab.svg"
   inkscape:version="1.4.3 (0d15f75, 2025-12-25)"
   xmlns:inkscape="http://www.inkscape.org/namespaces/inkscape"
   xmlns:sodipodi="http://sodipodi.sourceforge.net/DTD/sodipodi-0.dtd"
   xmlns="http://www.w3.org/2000/svg"
   xmlns:svg="http://www.w3.org/2000/svg"><sodipodi:namedview
   id="namedview9"
   pagecolor="#ffffff"
   bordercolor="#111111"
   borderopacity="1"
   inkscape:showpageshadow="0"
   inkscape:pageopacity="0"
   inkscape:pagecheckerboard="1"
   inkscape:deskcolor="#d1d1d1"
   inkscape:zoom="0.53378276"
   inkscape:cx="373.74756"
   inkscape:cy="512.38073"
   inkscape:window-width="1920"
   inkscape:window-height="991"
   inkscape:window-x="-9"
   inkscape:window-y="-9"
   inkscape:window-maximized="1"
   inkscape:current-layer="svg9" />
<desc
   id="desc1">Created with Fabric.js 5.3.0</desc>
<defs
   id="defs1">
</defs>
<g
   transform="translate(640,512)"
   id="background-logo">
<rect
   style="opacity:1;fill:#ffffff;fill-opacity:0;fill-rule:nonzero;stroke:none;stroke-width:0;stroke-linecap:butt;stroke-linejoin:miter;stroke-miterlimit:4;stroke-dasharray:none;stroke-dashoffset:0"
   paint-order="stroke"
   x="-640"
   y="-512"
   rx="0"
   ry="0"
   width="1280"
   height="1024"
   id="rect1" />
</g>
<g
   transform="matrix(1.4321392,0,0,1.4321392,533.60569,380.25466)"
   id="logo-logo">
<g
   paint-order="stroke"
   id="g6">
		<g
   transform="matrix(0.17010812,0,0,0.17010812,0.08621062,-65.162524)"
   id="g1">
<path
   style="opacity:1;fill:#ffffff;fill-rule:nonzero;stroke:none;stroke-width:1;stroke-linecap:butt;stroke-linejoin:miter;stroke-miterlimit:4;stroke-dasharray:none;stroke-dashoffset:0"
   paint-order="stroke"
   transform="translate(-1041.0711,-639.5)"
   d="m 1372,221 c 39.17,0 39.17,0 51.02,1.25 l 1.62,0.17 c 35.47,3.72 70.53,9.89 104.86,19.67 33.68,9.68 66.02,22.6 97.51,37.92 9.0918,4.53507 18.002,9.42551 26.71,14.66 q 3,1.75 6.02,3.42 c 15.8803,8.72625 31.0652,18.66228 45.42,29.72 q 3.36,2.6 6.78,5.11 c 13.5657,9.93936 26.5597,20.63637 38.92,32.04 q 2.56,2.3 5.2,4.54 c 3.64,3.13 7,6.52 10.36,9.94 2.1265,2.20135 4.3875,4.26866 6.77,6.19 1.58,1.26 3,2.54 4.34,4.06 l 2.51,2.95 c 2.67,3.11 5.54,5.99 8.46,8.86 4,3.95 7.8,7.97 11.43,12.26 q 1.56,1.8 3.16,3.6 c 7.4663,8.43173 14.5759,17.17274 21.31,26.2 q 2.4,3.2 4.87,6.33 c 6.0411,7.77917 11.7658,15.79903 17.16,24.04 l 2.53,3.78 c 5.9459,8.92793 11.6283,18.02852 17.04,27.29 l 0.88,1.5 c 15.74,26.75 29.42,54.55 40.3,83.63 12.1,32.53 21.02,66.04 27.3,100.16 4.97,27.4 8.5,55.26 8.64,83.12 q 0.04,11.8 -0.12,23.59 l -1,1 h -111 l -1,-1 -0.02,-0.93 c -0.58,-29.47 -2.63,-58.92 -8.34,-87.89 -5.18,-25.71 -11.86,-51.05 -21.37,-75.53 -9.97,-25.42 -21.53,-50.12 -35.75,-73.47 -13.052,-21.2442 -27.8783,-41.3459 -44.32,-60.09 q -3.76,-4.2 -7.6,-8.28 -2.59,-2.76 -5.04,-5.63 c -3.6703,-4.22387 -7.4998,-8.30681 -11.48,-12.24 q -1.52,-1.5 -3.03,-3.03 c -4.2156,-4.20423 -8.5922,-8.24392 -13.12,-12.11 l -3.4,-2.96 C 1667.339,446.83659 1657.8208,439.21675 1648,432 l -1.12,-0.83 c -22.4411,-16.65545 -46.2798,-31.3401 -71.25,-43.89 -22.2728,-11.17731 -45.4731,-20.40188 -69.34,-27.57 -25.6185,-7.61272 -51.7958,-13.19993 -78.29,-16.71 l -1.28,-0.17 c -18.13,-2.36 -36.5,-2.82 -54.72,-3.83 z M 942,400 q 1.79,0.18 3.54,0.55 L 947,401 c 1.98139,1.11644 3.88266,2.36947 5.69,3.75 l 1.68,1.2 c 2.58769,1.82995 5.1611,3.68001 7.72,5.55 l 8.97,6.49 q 7.71,5.58 15.5,11.07 l 1.06,0.75 15.82,11.13 1.05,0.74 q 8.87,6.27 17.64,12.64 c 5.4289,3.93214 10.8857,7.82557 16.37,11.68 q 8.76,6.15 17.44,12.44 l 1.13,0.82 10.15,7.35 c 10.6408,7.71815 21.3546,15.33516 32.14,22.85 q 8.8,6.14 17.53,12.35 l 7.31,5.15 4.24,2.98 1.06,0.74 c 4.3616,3.07177 8.6984,6.17854 13.01,9.32 l 4.49,3.25 c 6.2,4.5 12.49,8.84 18.83,13.13 q 8.34,5.64 16.36,11.75 c 5.1493,3.92755 10.4011,7.71887 15.75,11.37 l 1,0.68 2,1.36 1,0.69 1,0.68 c 4.1932,2.86844 8.36,5.77523 12.5,8.72 q 8.89,6.29 17.7,12.7 8.13,5.88 16.36,11.67 9.37,6.6 18.64,13.32 7.58,5.5 15.25,10.88 10.26,7.21 20.32,14.7 c 5.5647,4.12486 11.1818,8.17852 16.85,12.16 q 8.73,6.12 17.38,12.38 l 1.13,0.82 10.15,7.35 q 12.8,9.32 25.78,18.39 c 9.04,6.3 17.97,12.72 26.89,19.2 l 11.3,8.18 q 8.64,6.23 17.36,12.36 8.28,5.82 16.45,11.76 c 6.1757,4.47653 12.3825,8.90997 18.62,13.3 l 7.38,5.2 q 14.32,10.04 28.48,20.29 7.16,5.18 14.36,10.3 5.18,3.7 10.32,7.43 12.47,9.05 25.1,17.86 9.6,6.69 19.05,13.56 8.05,5.84 16.19,11.56 9.37,6.6 18.63,13.32 8.15,5.9 16.37,11.68 9.37,6.6 18.63,13.32 8.15,5.9 16.37,11.68 9.37,6.6 18.63,13.32 8.15,5.9 16.37,11.68 8.8,6.19 17.5,12.5 9.87,7.16 19.85,14.16 l 2.07,1.46 1.02,0.72 q 5.58,3.93 11.12,7.91 l 0.93,0.66 5.01,3.59 c -0.2566,1.35134 -0.5905,2.68687 -1,4 -0.6709,1.27115 -1.4294,2.4941 -2.27,3.66 l -2.98,4.4 -1.62,2.4 c -2.2341,3.31519 -4.4808,6.62188 -6.74,9.92 q -10.03,14.74 -20.28,29.32 -5.6,8 -11.11,16.05 c -3.507,5.1966 -7.1754,10.2825 -11,15.25 -2.2972,-1.0528 -4.5017,-2.2972 -6.59,-3.72 l -0.89,-0.64 -0.97,-0.7 q -1.6,-1.12 -3.17,-2.25 l -2.27,-1.61 q -5.8,-4.13 -11.56,-8.3 l -1.1,-0.8 -1.11,-0.8 -1.1,-0.81 -2.23,-1.62 c -5.8343,-4.2166 -11.735,-8.3405 -17.7,-12.37 -6.0331,-4.0831 -11.981,-8.2907 -17.84,-12.62 q -7.36,-5.44 -14.85,-10.7 l -1.07,-0.75 -5.4,-3.8 -10.65,-7.51 -4.25,-3 -1.07,-0.75 q -3.17,-2.25 -6.34,-4.47 c -8.0303,-5.64335 -16.0205,-11.34349 -23.97,-17.1 -5.4289,-3.93214 -10.8857,-7.82557 -16.37,-11.68 q -9.37,-6.6 -18.63,-13.32 c -5.7768,-4.18175 -11.5836,-8.32185 -17.42,-12.42 -3.9724,-2.78175 -7.9225,-5.59517 -11.85,-8.44 l -1.11,-0.81 -2.24,-1.63 c -6.5707,-4.7739 -13.2183,-9.44118 -19.94,-14 -6.3413,-4.30317 -12.5927,-8.73746 -18.75,-13.3 q -6.88,-5.05 -13.87,-9.96 c -5.9905,-4.207 -11.9507,-8.45711 -17.88,-12.75 l -4.54,-3.28 -1.1,-0.8 q -5.1,-3.69 -10.23,-7.35 l -0.85,-0.6 q -5.04,-3.6 -10.1,-7.17 l -1.05,-0.73 -3.19,-2.25 -1.07,-0.76 q -8.95,-6.32 -17.81,-12.75 -8.68,-6.28 -17.43,-12.42 -7.53,-5.3 -14.96,-10.7 -10.9,-7.9 -21.98,-15.56 -13.35,-9.26 -26.5,-18.82 -5.4,-3.91 -10.84,-7.78 c -4.977,-3.53237 -9.9272,-7.10248 -14.85,-10.71 l -1.14,-0.83 c -6.25,-4.53 -12.6,-8.9 -19,-13.24 -5.8277,-3.95904 -11.5433,-8.08066 -17.14,-12.36 -5.3968,-4.07667 -10.9091,-7.99827 -16.53,-11.76 -5.9529,-3.99668 -11.7887,-8.1651 -17.5,-12.5 -5.6719,-4.30907 -11.4642,-8.45739 -17.37,-12.44 q -9.45,-6.38 -18.7,-13.06 l -1.11,-0.81 -5.58,-4.06 -11.3,-8.2 -1.13,-0.81 q -8.64,-6.23 -17.36,-12.36 -8.84,-6.23 -17.59,-12.58 -8.13,-5.9 -16.36,-11.68 -9.37,-6.6 -18.63,-13.32 -8.67,-6.28 -17.42,-12.42 c -5.4489,-3.83609 -10.8691,-7.71287 -16.26,-11.63 -6.3535,-4.60375 -12.7505,-9.14729 -19.19,-13.63 -8.6521,-6.05061 -17.2458,-12.18423 -25.78,-18.4 l -10.1,-7.29 -5.56,-4.02 -1.12,-0.8 -12.18,-8.81 -2.37,-1.72 -3.3,-2.38 -0.97,-0.7 c -1.84498,-1.33393 -3.71876,-2.62757 -5.62,-3.88 h -6 c -9.17,6.17 -18.32,12.37 -27.12,19.06 -5.33951,4.06448 -10.75719,8.02522 -16.25,11.88 q -8.84,6.17 -17.57,12.5 l -1.13,0.81 -7.93,5.75 -9.06,6.56 -1.13,0.82 q -8.64,6.23 -17.36,12.36 -8.24,5.79 -16.39,11.7 l -1.13,0.81 c -5.63409,4.06849 -11.25745,8.15184 -16.87,12.25 l -1.12,0.81 c -6.18726,4.4555 -12.44471,8.81272 -18.77,13.07 -5.80156,3.94291 -11.49371,8.04446 -17.07,12.3 -5.57219,4.20693 -11.23348,8.29452 -16.98,12.26 q -9.72,6.74 -19.3,13.68 c -7.56233,5.49787 -15.17599,10.92478 -22.84,16.28 q -4.98,3.5 -9.92,7.04 l -0.84,0.6 c -3.87973,2.77313 -7.74975,5.55982 -11.61,8.36 l -1.13,0.82 -2.3,1.65 -1.14,0.84 q -8.75,6.33 -17.6,12.53 -5.95,4.18 -11.84,8.44 l -1.11,0.81 -2.24,1.63 c -6.57073,4.7739 -13.21827,9.44118 -19.94,14 -6.34132,4.30317 -12.59266,8.73746 -18.75,13.3 q -6.87,5.05 -13.87,9.96 -8.89,6.24 -17.69,12.62 -9.23,6.69 -18.55,13.24 -7.73,5.44 -15.37,11 c -5.96282,4.34309 -11.99015,8.5969 -18.08,12.76 -7.98782,5.49342 -15.89206,11.1074 -23.71,16.84 q -5.68,4.13 -11.35,8.22 l -1.13,0.82 q -8.64,6.23 -17.36,12.36 -8.24,5.79 -16.39,11.7 l -1.13,0.81 -7.93,5.75 -9.06,6.56 -1.13,0.82 q -8.64,6.24 -17.37,12.36 -8.17,5.76 -16.25,11.63 c -6.37573,4.62392 -12.79265,9.19077 -19.25,13.7 l -1.28,0.88 -5.03,3.51 C 369.6716,935.52481 356.79442,944.70518 344,954 l -9.06,6.56 -1.13,0.82 q -8.64,6.23 -17.36,12.36 -8.28,5.82 -16.45,11.76 -9.23,6.69 -18.55,13.24 c -3.9724,2.7817 -7.92253,5.5952 -11.85,8.44 l -1.11,0.81 -2.24,1.63 q -10.35,7.51 -20.95,14.7 c -5.81129,3.9473 -11.5587,7.9878 -17.24,12.12 -8.25942,6.0236 -16.56971,11.9772 -24.93,17.86 l -1.09,0.78 c -1,0.7 -1.97,1.34 -3.04,1.92 -1.34,0.45 -2.6,0.74 -4,1 l -0.76,-1.14 -11.01,-16.55 q -8.62,-13.01 -17.48,-25.87 c -2.91503,-4.2217 -5.78851,-8.4719 -8.62,-12.75 C 151.15789,992.74516 145.11436,983.84821 139,975 l 1,-3 1.27,-0.9 Q 153.7,962.4 166,953.5 c 6.1757,-4.47653 12.38252,-8.90997 18.62,-13.3 l 8.43,-5.94 7.39,-5.2 1.06,-0.74 q 8.85,-6.27 17.63,-12.64 8.67,-6.28 17.42,-12.42 8.28,-5.82 16.45,-11.76 11.89,-8.6 23.9,-17.02 l 6.35,-4.48 1.06,-0.75 3.19,-2.25 11.66,-8.22 c 8.03026,-5.64335 16.02046,-11.34349 23.97,-17.1 q 8.67,-6.28 17.42,-12.42 c 3.9724,-2.78175 7.92253,-5.59517 11.85,-8.44 l 1.11,-0.81 2.24,-1.63 1.13,-0.82 1.11,-0.81 c 5.89336,-4.26118 11.85412,-8.42837 17.88,-12.5 5.66019,-3.80326 11.21238,-7.76482 16.65,-11.88 4.1428,-3.11826 8.34353,-6.15879 12.6,-9.12 q 8.96,-6.28 17.82,-12.69 l 1.13,-0.81 c 5.63409,-4.0685 11.25744,-8.15184 16.87,-12.25 l 1.12,-0.81 c 6.18,-4.48 12.46,-8.8 18.77,-13.07 5.80156,-3.94291 11.49371,-8.04446 17.07,-12.3 5.57219,-4.20693 11.23348,-8.29452 16.98,-12.26 q 9.73,-6.74 19.3,-13.68 c 6.09341,-4.41973 12.22026,-8.79319 18.38,-13.12 5.4455,-3.83622 10.86231,-7.713 16.25,-11.63 q 10.16,-7.36 20.46,-14.51 9.58,-6.69 19.04,-13.56 8.05,-5.84 16.19,-11.56 8.8,-6.19 17.5,-12.5 9.23,-6.69 18.55,-13.24 8.28,-5.82 16.45,-11.76 c 6.2412,-4.52483 12.51469,-9.00495 18.82,-13.44 l 2.12,-1.5 1.05,-0.73 1.03,-0.73 c 7.09437,-5.00514 14.15454,-10.05859 21.18,-15.16 l 4.49,-3.25 1.13,-0.83 c 6.35,-4.6 12.8,-9.04 19.28,-13.44 5.17,-3.51 10.24,-7.1 15.2,-10.9 4.69,-3.56 9.5,-6.91 14.33,-10.27 q 9.85,-6.85 19.56,-13.87 8.6,-6.26 17.31,-12.38 8.8,-6.19 17.5,-12.5 8.7,-6.31 17.5,-12.5 12.18,-8.6 24.23,-17.36 l 12.4,-8.95 3.37,-2.44 1.12,-0.8 6.78,-4.91 c 11.87612,-8.61656 23.82657,-17.13021 35.85,-25.54 l 1.06,-0.75 20.04,-14.13 2.28,-1.6 3.15,-2.22 0.95,-0.66 c 1.1651,-0.78269 2.25929,-1.66607 3.27,-2.64"
   stroke-linecap="round"
   id="path1" />
</g>
		<g
   transform="matrix(0.17010812,0,0,0.17010812,-2.3841397,20.243171)"
   id="g2">
<path
   style="opacity:1;fill:#ffffff;fill-rule:nonzero;stroke:none;stroke-width:1;stroke-linecap:butt;stroke-linejoin:miter;stroke-miterlimit:4;stroke-dasharray:none;stroke-dashoffset:0"
   paint-order="stroke"
   transform="translate(-1026.5489,-1141.5671)"
   d="m 1372,459 c 20.35,0 20.35,0 28.19,0.69 l 1.47,0.12 c 19.6976,1.72424 39.2098,5.14357 58.32,10.22 18.542,5.10764 36.6143,11.78855 54.02,19.97 17.78,8.44 35.01,18.14 51.07,29.54 8.8793,6.35409 17.4397,13.14234 25.65,20.34 q 1.64,1.44 3.32,2.86 c 10.14,8.65 20.1,17.75 28.76,27.88 q 1.67,1.91 3.36,3.8 c 12.2679,13.68728 23.3259,28.41242 33.05,44.01 10.9,17.6 20.54,35.72 28.21,54.95 7.315,18.38595 13.0394,37.36553 17.11,56.73 1.3458,6.66703 2.5693,13.35815 3.67,20.07 0.8061,4.74488 1.4631,9.5139 1.97,14.3 1.2,10.8 0.93,21.67 0.83,32.52 l -1,1 h -114 l -1,-1 -0.05,-0.91 c -0.87,-16.1 -2,-32.02 -5.63,-47.77 -3.11,-13.04 -7.01,-25.99 -12.32,-38.32 -4.83,-11.13 -10.1,-22.03 -16.74,-32.2 -6.6,-9.95 -13.74,-19.58 -21.92,-28.3 l -3.56,-3.7 -2.45,-2.56 c -7.46,-7.9 -15.2,-15.17 -23.93,-21.67 -7.5183,-5.51475 -15.3516,-10.58668 -23.46,-15.19 -11.43,-6.63 -23.3,-11.93 -35.7,-16.51 -11.7029,-4.22728 -23.7244,-7.51437 -35.95,-9.83 -13.75,-2.4 -27.25,-3 -41.29,-4.04 z M 951,603 c 2.63,0.32 5.16,0.82 7.72,1.53 3.88439,1.19384 7.66383,2.70562 11.3,4.52 7.24,3.96 13.73,9.2 20.3,14.18 q 6.31,4.74 12.74,9.33 l 2.24,1.61 3.35,2.41 7.88,5.7 Q 1031.7,653.25 1047,664 c 12.1053,8.51965 24.1489,17.12654 36.13,25.82 l 9.06,6.56 c 5.4114,3.90866 10.8482,7.78208 16.31,11.62 q 8.76,6.15 17.44,12.44 l 1.13,0.81 q 4.53,3.3 9.07,6.57 c 10.5294,7.64176 21.113,15.20862 31.75,22.7 l 11.67,8.23 3.2,2.25 1.06,0.75 q 3.17,2.25 6.34,4.47 c 8.0303,5.64335 16.0205,11.34349 23.97,17.1 5.4289,3.93214 10.8857,7.82557 16.37,11.68 q 8.76,6.15 17.44,12.44 l 1.13,0.81 q 4.53,3.3 9.07,6.57 l 7.92,5.74 1.13,0.82 q 8.64,6.23 17.36,12.36 8.28,5.82 16.45,11.76 c 6.1757,4.47653 12.3825,8.90997 18.62,13.3 l 7.38,5.2 8.44,5.94 1.06,0.74 q 8.75,6.2 17.43,12.5 8.97,6.5 18.07,12.82 10.22,7.12 20.3,14.44 8.06,5.84 16.2,11.56 9.37,6.6 18.63,13.32 8.67,6.28 17.42,12.42 c 5.4489,3.83609 10.8691,7.71287 16.26,11.63 q 9.53,6.9 19.19,13.63 c 8.6521,6.05061 17.2458,12.18423 25.78,18.4 l 10.1,7.29 3.34,2.41 10.56,7.62 5.01,3.6 5.71,4.1 0.99,0.7 1.7,1.23 c 1,0.8 1.9,1.74 2.81,2.65 v 802 l -2,1 c -1.55,0.13 -1.55,0.13 -3.4,0.13 h -55.4 c -23.07,0.01 -46.14,0 -69.21,-0.02 h -115.97 l -57.82,-0.01 h -84.55 l -83.59,-0.02 h -41.97 l -44.96,-0.01 h -1.37 l -128.39,-0.01 h -60.84 l -108.84,-0.02 h -3.84 l -230.63,-0.02 h -1.1 L 343,1824 l -1,-1 v -802 c 14.81,-11.4 14.81,-11.4 20.22,-15.14 l 5.33,-3.73 1.11,-0.78 c 3.70124,-2.61027 7.38136,-5.25035 11.04,-7.92 6.71975,-4.87567 13.48673,-9.6859 20.3,-14.43 q 12.52,-8.76 24.9,-17.75 5.17,-3.74 10.35,-7.44 l 0.86,-0.6 3.38,-2.42 5.89,-4.2 q 7.3,-5.25 14.65,-10.43 l 1.04,-0.73 2.11,-1.49 q 10.03,-7.06 19.95,-14.26 8.67,-6.28 17.42,-12.42 c 4.34686,-3.04552 8.66703,-6.12897 12.96,-9.25 l 4.49,-3.26 c 6.26956,-4.52494 12.61377,-8.94555 19.03,-13.26 5.5381,-3.75065 10.9415,-7.69646 16.2,-11.83 4.05146,-3.12903 8.20715,-6.12072 12.46,-8.97 q 8.68,-5.9 17.18,-12.07 l 1.14,-0.82 6.86,-4.98 c 11.75108,-8.54158 23.58497,-16.96865 35.5,-25.28 4.44159,-3.10156 8.87494,-6.2149 13.3,-9.34 q 8.67,-6.14 17.26,-12.39 c 5.9834,-4.32606 12.00699,-8.59625 18.07,-12.81 q 9.62,-6.7 19.13,-13.56 l 1.11,-0.81 16.63,-12.07 1.12,-0.8 c 6.38,-4.62 12.82,-9.14 19.27,-13.64 7.95,-5.54 15.81,-11.2 23.65,-16.89 q 5.03,-3.63 10.09,-7.23 5.65,-4.01 11.27,-8.09 l 1.12,-0.8 2.27,-1.65 q 9.37,-6.8 18.84,-13.46 8.76,-6.15 17.44,-12.44 l 1.13,-0.81 7.93,-5.75 9.06,-6.56 1.13,-0.82 q 8.12,-5.86 16.31,-11.62 c 12.98029,-9.14179 25.84792,-18.44249 38.6,-27.9 q 5.5,-4.04 10.94,-8.18 c 5.33,-4.06 10.63,-7.96 16.57,-11.07 3.10826,-1.57526 6.28103,-3.01985 9.51,-4.33 q 1.36,-0.52 2.75,-0.96 C 937.4,602.3 944.39,602.5 951,603"
   stroke-linecap="round"
   id="path2" />
</g>
		<g
   transform="matrix(0.17010812,0,0,0.17010812,-16.426374,32.463753)"
   id="g3">
<path
   style="opacity:1;fill:#000000;fill-rule:nonzero;stroke:none;stroke-width:1;stroke-linecap:butt;stroke-linejoin:miter;stroke-miterlimit:4;stroke-dasharray:none;stroke-dashoffset:0"
   paint-order="stroke"
   transform="translate(-944,-1213.4072)"
   d="m 942.75,601.69 h 1.18 c 3.86,0.04 7.67,0.16 11.48,0.77 2.96,0.6 5.77,1.48 8.59,2.54 l 1.36,0.5 c 3.05739,1.21321 6.01339,2.6678 8.84,4.35 5.96,3.72 11.51,8.14 17.11,12.37 q 6.32,4.75 12.75,9.34 l 2.24,1.61 3.35,2.41 7.88,5.7 Q 1032.7,652.25 1048,663 c 14.7787,10.39096 29.4659,20.91136 44.06,31.56 l 1.13,0.82 c 5.4114,3.90866 10.8482,7.78208 16.31,11.62 q 8.76,6.15 17.44,12.44 l 1.13,0.81 q 4.53,3.3 9.07,6.57 15.78,11.46 31.75,22.7 l 11.67,8.23 3.2,2.25 1.06,0.75 q 3.17,2.25 6.34,4.47 c 8.0303,5.64335 16.0205,11.34349 23.97,17.1 q 8.15,5.9 16.37,11.68 8.76,6.15 17.44,12.44 l 1.13,0.81 17,12.31 1.12,0.82 q 8.64,6.23 17.36,12.36 8.28,5.82 16.45,11.76 c 8.6061,6.25141 17.2731,12.41837 26,18.5 l 8.44,5.94 1.06,0.74 q 8.75,6.2 17.43,12.5 8.97,6.5 18.07,12.82 10.22,7.12 20.3,14.44 8.06,5.85 16.2,11.56 9.37,6.6 18.63,13.32 c 5.7768,4.18175 11.5836,8.32185 17.42,12.42 q 8.18,5.76 16.26,11.64 9.53,6.9 19.19,13.62 12.98,9.07 25.78,18.4 l 10.1,7.29 3.34,2.41 c 5.1814,3.752 10.3714,7.492 15.57,11.22 l 2.4,1.72 3.31,2.38 0.99,0.7 0.92,0.67 0.79,0.56 c 1,0.8 1.9,1.74 2.8,2.65 v 804 l -2,1 c -1.55,0.12 -1.55,0.12 -3.41,0.12 h -55.49 c -23.11,0.014 -46.22,0.014 -69.33,0 h -37.63 l -57.14,-0.01 h -21.39 l -57.91,-0.02 h -169.77 l -40.7,-0.01 -45.03,-0.01 h -1.37 l -128.6,-0.01 h -60.95 l -109.01,-0.02 h -3.85 l -231.02,-0.02 h -1.1 L 342,1825 l -1,-1 v -804 c 14.81,-11.4 14.81,-11.4 20.22,-15.14 l 5.33,-3.73 c 4.08719,-2.8477 8.13753,-5.74794 12.15,-8.7 q 10.08,-7.31 20.3,-14.43 12.52,-8.76 24.9,-17.75 5.17,-3.74 10.35,-7.44 l 0.86,-0.61 3.38,-2.41 5.89,-4.2 q 7.3,-5.25 14.65,-10.43 l 1.04,-0.73 2.11,-1.49 q 10.03,-7.06 19.95,-14.26 c 5.77657,-4.18206 11.58338,-8.32217 17.42,-12.42 q 5.96,-4.18 11.85,-8.44 l 1.11,-0.81 4.49,-3.26 c 6.27009,-4.5242 12.61428,-8.9448 19.03,-13.26 5.53859,-3.74996 10.942,-7.69579 16.2,-11.83 4.05146,-3.12903 8.20715,-6.12072 12.46,-8.97 q 8.68,-5.9 17.18,-12.06 l 1.14,-0.83 6.86,-4.98 c 11.75155,-8.54092 23.58544,-16.96798 35.5,-25.28 4.44159,-3.10156 8.87494,-6.2149 13.3,-9.34 q 8.67,-6.13 17.26,-12.39 8.98,-6.49 18.07,-12.81 9.62,-6.7 19.13,-13.56 l 1.11,-0.81 16.63,-12.07 1.12,-0.8 q 9.58,-6.91 19.27,-13.64 c 7.95,-5.54 15.81,-11.2 23.65,-16.89 q 5.03,-3.64 10.09,-7.23 5.65,-4.01 11.27,-8.09 l 1.12,-0.8 2.27,-1.65 q 9.37,-6.8 18.84,-13.46 8.76,-6.15 17.44,-12.44 l 1.13,-0.81 7.93,-5.75 9.06,-6.56 1.13,-0.82 q 8.12,-5.86 16.31,-11.62 c 12.98,-9.14219 25.84763,-18.44289 38.6,-27.9 q 5.5,-4.04 10.94,-8.18 c 5.33,-4.06 10.63,-7.97 16.59,-11.07 l 1.8,-0.91 1.65,-0.84 c 2.5071,-1.21068 5.10913,-2.21403 7.78,-3 4.62,-1.23 9.13,-1.46 13.89,-1.41 m -22.36,58.74 q -4.25,1.1 -8.39,2.57 l -1.67,0.57 c -3.99574,1.39384 -7.87457,3.10254 -11.6,5.11 -8.85,5 -16.88,11.52 -25.02,17.57 q -6.36,4.7 -12.77,9.31 l -2.24,1.61 -4.47,3.22 -10.1,7.3 -5.63,4.06 -2.25,1.63 -5.62,4.06 -2.26,1.62 -5.61,4.06 -11.4,8.24 c -10.40963,7.55545 -20.8665,15.0456 -31.37,22.47 l -1.05,0.73 -1.05,0.75 q -9.96,7 -19.83,14.13 l -1.13,0.82 -10.15,7.35 q -13.43,9.76 -27.05,19.27 c -8.22389,5.76086 -16.39424,11.59778 -24.51,17.51 l -11.22,8.11 -4.5,3.25 -1.12,0.8 -6.78,4.91 q -12.02,8.73 -24.15,17.28 c -5.48876,3.86426 -10.95221,7.76434 -16.39,11.7 l -1.13,0.81 -18.12,13.13 q -8.6,6.21 -17.3,12.3 c -5.7218,4.03467 -11.39225,8.14167 -17.01,12.32 -6.30658,4.6826 -12.67378,9.28299 -19.1,13.8 q -8.34,5.85 -16.59,11.83 l -4.54,3.28 -1.1,0.8 c -3.65978,2.64423 -7.32981,5.27425 -11.01,7.89 -4.97652,3.53308 -9.92666,7.10318 -14.85,10.71 l -1.13,0.83 c -5.58547,4.03825 -11.23622,7.98544 -16.95,11.84 -6.98,4.73 -13.9,9.42 -20.23,15.02 l -1.13,0.98 c -2.83109,2.46123 -5.46266,5.14295 -7.87,8.02 -3.73787,4.96018 -7.05284,10.22532 -9.91,15.74 -2.31394,4.5992 -4.22444,9.3905 -5.71,14.32 -1.47532,5.0199 -2.68697,10.1135 -3.63,15.26 -0.96,5.74 -0.89,11.43 -0.87,17.22 v 22.66 c -0.0162,13.1233 -0.0162,26.2467 0,39.37 v 7.65 c -0.007,30.6467 -5.3e-4,61.2933 0.02,91.94 v 48.15 l 0.03,96.25 v 1.55 l 0.01,71.5 v 4.63 l 0.02,91.97 v 2.91 l 0.02,131.2 v 1.24 l 0.02,61.44 1,1 h 1000 l 1,-1 0.06,-62.78 v -1.24 q 0.07,-65.85 0.1,-131.7 l 0.01,-2.93 0.03,-61.46 0.02,-30.87 v -4.65 q 0.01,-35.84 0.06,-71.67 v -1.55 l 0.09,-96.36 v -33.82 l 0.01,-13.01 v -1.44 q 0,-22.9 0.04,-45.8 0.04,-23.1 0.03,-46.19 v -7.66 q 0,-9.9 0.03,-19.77 0.03,-9.75 0,-19.5 l 0.02,-10.4 c 0.1,-21.04 0.1,-21.04 -1.09,-28.36 -1.2815,-6.7585 -3.1143,-13.4007 -5.48,-19.86 -1.869,-4.8859 -4.1262,-9.61438 -6.75,-14.14 -2.4903,-4.18615 -5.3127,-8.16561 -8.44,-11.9 -3.1049,-3.51757 -6.4893,-6.7782 -10.12,-9.75 -5.48,-4.31 -11.33,-8.15 -17.1,-12.06 q -8.43,-5.7 -16.64,-11.7 l -4.48,-3.25 -1.11,-0.8 q -5.87,-4.23 -11.79,-8.38 -9.37,-6.6 -18.63,-13.32 -8.15,-5.9 -16.37,-11.68 c -5.8408,-4.10799 -11.6543,-8.25475 -17.44,-12.44 l -1.13,-0.81 -17,-12.31 -1.12,-0.82 q -8.12,-5.86 -16.31,-11.62 c -8.1171,-5.73008 -16.1939,-11.51689 -24.23,-17.36 l -6.77,-4.9 -1.13,-0.8 -3.37,-2.44 -12.4,-8.96 q -12.01,-8.73 -24.15,-17.28 c -4.3466,-3.04589 -8.6668,-6.12934 -12.96,-9.25 l -4.48,-3.26 c -6.2734,-4.52429 -12.6209,-8.94489 -19.04,-13.26 -5.5386,-3.74996 -10.942,-7.69579 -16.2,-11.83 -4.0524,-3.12783 -8.208,-6.11949 -12.46,-8.97 -5.7876,-3.93253 -11.5149,-7.953 -17.18,-12.06 l -1.14,-0.82 -5.69,-4.14 q -5.77,-4.2 -11.55,-8.36 l -1.14,-0.82 q -7.71,-5.56 -15.44,-11.09 -8.2,-5.84 -16.34,-11.74 c -4.9314,-3.56989 -9.8748,-7.12324 -14.83,-10.66 -12.4467,-8.85571 -24.8139,-17.82274 -37.1,-26.9 -3.6536,-2.67603 -7.2772,-5.39287 -10.87,-8.15 -5.45,-4.18 -10.93,-8.13 -17,-11.35 -4.21417,-2.25667 -8.61761,-4.14052 -13.16,-5.63 -3.91373,-1.15431 -7.87383,-2.14517 -11.87,-2.97 l -1.09,-0.26 c -1.77726,-0.4126 -3.58193,-0.69667 -5.4,-0.85 q -2.47,-0.1 -4.96,-0.13 l -1.86,-0.03 q -2.97,-0.04 -5.94,-0.04 h -1.02 c -15.86,-0.05 -15.86,-0.05 -23.34,1.74"
   stroke-linecap="round"
   id="path3" />
</g>
		<g
   transform="matrix(0.17010812,0,0,0.17010812,0,-65.07747)"
   id="g4">
<path
   style="opacity:1;fill:#000000;fill-rule:nonzero;stroke:none;stroke-width:1;stroke-linecap:butt;stroke-linejoin:miter;stroke-miterlimit:4;stroke-dasharray:none;stroke-dashoffset:0"
   paint-order="stroke"
   transform="translate(-1040.5643,-640)"
   d="m 943,398 q 2.55,0.87 5,2 c 1.94767,1.19213 3.84591,2.46319 5.69,3.81 l 1.68,1.18 c 5.6,3.94 11.14,7.98 16.7,12 q 7.7,5.58 15.5,11.07 l 1.05,0.75 15.82,11.13 1.05,0.74 q 8.87,6.27 17.64,12.64 c 5.4289,3.93214 10.8857,7.82557 16.37,11.68 q 8.76,6.15 17.44,12.44 l 1.13,0.82 10.15,7.35 c 10.6408,7.71815 21.3546,15.33516 32.14,22.85 q 8.8,6.14 17.53,12.35 l 7.31,5.15 4.24,2.98 1.06,0.74 c 4.3616,3.07177 8.6984,6.17854 13.01,9.32 l 4.49,3.25 c 6.2,4.5 12.49,8.84 18.83,13.13 q 8.34,5.64 16.36,11.75 c 5.1493,3.92755 10.4011,7.71887 15.75,11.37 l 1,0.68 2,1.36 1,0.69 1,0.68 c 4.1932,2.86844 8.36,5.77523 12.5,8.72 q 8.89,6.29 17.7,12.7 8.13,5.88 16.36,11.67 9.37,6.6 18.64,13.32 7.58,5.5 15.25,10.88 10.26,7.21 20.32,14.7 c 5.5647,4.12486 11.1818,8.17852 16.85,12.16 q 8.73,6.12 17.38,12.38 l 1.13,0.82 10.15,7.35 q 12.8,9.32 25.78,18.39 c 9.04,6.3 17.97,12.72 26.89,19.2 l 11.3,8.18 q 8.64,6.23 17.36,12.36 8.28,5.82 16.45,11.76 c 6.1757,4.47653 12.3825,8.90997 18.62,13.3 l 7.38,5.2 q 14.32,10.04 28.48,20.29 7.16,5.18 14.36,10.3 5.18,3.7 10.32,7.43 12.47,9.05 25.1,17.86 9.6,6.69 19.05,13.56 8.05,5.84 16.19,11.56 9.37,6.6 18.63,13.32 8.15,5.9 16.37,11.68 9.37,6.6 18.63,13.32 8.15,5.9 16.37,11.68 9.37,6.6 18.63,13.32 8.15,5.9 16.37,11.68 9.37,6.6 18.63,13.32 8.24,5.96 16.56,11.8 11.76,8.3 23.31,16.88 c -0.5443,1.71303 -1.2128,3.38413 -2,5 -1.62,2.8 -3.5,5.45 -5.31,8.13 l -1.61,2.38 -6.69,9.86 q -10.02,14.75 -20.28,29.34 c -3.0086,4.2677 -5.9854,8.5579 -8.93,12.87 l -1.42,2.1 c -4.0068,5.9509 -8.264,11.7295 -12.76,17.32 -2.0278,-0.9024 -3.9749,-1.9763 -5.82,-3.21 l -1.88,-1.37 -1.04,-0.76 -5.8,-4.22 -7.46,-5.44 -8.94,-6.5 -1.11,-0.8 c -6.2138,-4.4821 -12.498,-8.866 -18.85,-13.15 -5.6232,-3.8161 -11.1677,-7.7469 -16.63,-11.79 q -7.36,-5.44 -14.85,-10.7 l -1.07,-0.75 -5.4,-3.8 -10.65,-7.51 -4.25,-3 -1.07,-0.75 q -3.17,-2.25 -6.34,-4.47 c -8.0303,-5.64335 -16.0205,-11.34349 -23.97,-17.1 -5.4289,-3.93214 -10.8857,-7.82557 -16.37,-11.68 q -9.37,-6.6 -18.63,-13.32 c -5.7768,-4.18175 -11.5836,-8.32185 -17.42,-12.42 -3.9724,-2.78175 -7.9225,-5.59517 -11.85,-8.44 l -1.11,-0.81 -2.24,-1.63 c -6.5707,-4.7739 -13.2183,-9.44118 -19.94,-14 -6.3413,-4.30317 -12.5927,-8.73746 -18.75,-13.3 q -6.88,-5.05 -13.87,-9.96 c -5.9905,-4.207 -11.9507,-8.45711 -17.88,-12.75 l -4.54,-3.28 -1.1,-0.8 q -5.1,-3.69 -10.23,-7.35 l -0.85,-0.6 q -5.04,-3.6 -10.1,-7.17 l -1.05,-0.73 -3.19,-2.25 -1.07,-0.76 q -8.95,-6.32 -17.81,-12.75 -8.68,-6.28 -17.43,-12.42 -7.53,-5.3 -14.96,-10.7 -10.9,-7.9 -21.98,-15.56 -13.35,-9.26 -26.5,-18.82 -5.4,-3.91 -10.84,-7.78 c -4.977,-3.53237 -9.9272,-7.10248 -14.85,-10.71 l -1.14,-0.83 c -6.25,-4.53 -12.6,-8.9 -19,-13.24 -5.8277,-3.95904 -11.5433,-8.08066 -17.14,-12.36 -5.3968,-4.07667 -10.9091,-7.99827 -16.53,-11.76 -5.9529,-3.99668 -11.7887,-8.1651 -17.5,-12.5 -5.6719,-4.30907 -11.4642,-8.45739 -17.37,-12.44 q -9.45,-6.38 -18.7,-13.06 l -1.11,-0.81 -5.58,-4.06 -11.3,-8.2 -1.13,-0.81 q -8.64,-6.23 -17.36,-12.36 -8.84,-6.23 -17.59,-12.58 -8.13,-5.9 -16.36,-11.68 -9.37,-6.6 -18.63,-13.32 -8.67,-6.28 -17.42,-12.42 c -5.4489,-3.83609 -10.8691,-7.71287 -16.26,-11.63 -6.3535,-4.60375 -12.7505,-9.14729 -19.19,-13.63 -8.6521,-6.05061 -17.2458,-12.18423 -25.78,-18.4 l -10.1,-7.29 -5.56,-4.02 -1.12,-0.8 -12.18,-8.81 -2.37,-1.72 -3.3,-2.38 -0.97,-0.7 c -1.84498,-1.33393 -3.71876,-2.62757 -5.62,-3.88 -1.42,0.02 -2.75,0.19 -4.15,0.42 L 940,530 c -2.96,1.57 -5.59,3.73 -8.25,5.75 l -2.38,1.76 -4.93,3.67 q -5.13,3.8 -10.33,7.52 l -5.61,4.05 -2.25,1.63 -1.12,0.8 -4.5,3.26 -2.25,1.62 -5.63,4.06 -10.15,7.34 c -8.00944,5.81647 -16.05964,11.57661 -24.15,17.28 q -8.24,5.79 -16.39,11.7 l -1.13,0.82 -10.15,7.35 q -13.43,9.76 -27.05,19.27 -8.98,6.26 -17.86,12.68 l -1.11,0.81 -16.63,12.07 -1.12,0.8 q -9.58,6.91 -19.28,13.64 -8.92,6.23 -17.73,12.62 -9.43,6.85 -19,13.5 -13.53,9.46 -26.89,19.2 c -14.75362,10.71463 -29.60423,21.29506 -44.55,31.74 l -1.06,0.74 q -5.98,4.21 -11.9,8.5 l -1.12,0.82 -4.48,3.25 c -6.20416,4.47974 -12.48168,8.857 -18.83,13.13 -5.8277,3.95904 -11.54328,8.08066 -17.14,12.36 -5.79539,4.36188 -11.71448,8.55693 -17.75,12.58 -5.53733,3.73672 -10.96624,7.63166 -16.28,11.68 -5.67195,4.30907 -11.46425,8.45739 -17.37,12.44 q -9.45,6.38 -18.7,13.06 l -1.11,0.81 -5.58,4.06 -12.43,9.01 q -8.64,6.23 -17.36,12.36 -8.24,5.79 -16.39,11.7 l -1.13,0.81 -7.93,5.75 -9.06,6.56 -1.13,0.82 q -8.64,6.24 -17.37,12.36 -8.17,5.76 -16.25,11.63 c -6.37573,4.62392 -12.79265,9.19077 -19.25,13.7 l -1.28,0.88 -5.03,3.51 C 370.6716,936.52481 357.79442,945.70518 345,955 l -9.06,6.56 -1.13,0.82 q -8.64,6.23 -17.36,12.36 -8.28,5.82 -16.45,11.76 -9.23,6.69 -18.55,13.24 c -3.9724,2.7817 -7.92253,5.5952 -11.85,8.44 l -1.11,0.81 -2.24,1.63 q -10.36,7.51 -20.95,14.7 c -5.81129,3.9473 -11.5587,7.9878 -17.24,12.12 -8.22293,5.9948 -16.49994,11.915 -24.83,17.76 l -1.07,0.77 q -1.54,1.08 -3.16,2.03 -2.46,1.1 -5,2 c -5.88,-7.91 -11.42,-16 -16.86,-24.23 l -3.28,-4.93 -16.24,-24.46 -0.97,-1.47 C 150.91376,994.83925 144.02968,984.86817 137,975 c 0.55055,-1.3883 1.21969,-2.72658 2,-4 0.72,-0.73 0.72,-0.73 1.5,-1.35 q 0.88,-0.61 1.78,-1.2 l 0.99,-0.7 2.12,-1.44 q 2.3,-1.55 4.57,-3.14 l 2.4,-1.66 c 3.87562,-2.68294 7.71595,-5.4165 11.52,-8.2 6.54288,-4.75834 13.12309,-9.46516 19.74,-14.12 l 8.43,-5.93 7.39,-5.2 1.06,-0.74 q 8.85,-6.27 17.63,-12.64 8.67,-6.28 17.42,-12.42 8.28,-5.82 16.45,-11.76 11.89,-8.6 23.9,-17.02 l 6.35,-4.48 1.06,-0.75 3.19,-2.25 11.66,-8.22 c 8.03026,-5.64335 16.02046,-11.34349 23.97,-17.1 q 8.67,-6.28 17.42,-12.42 c 3.9724,-2.78175 7.92253,-5.59517 11.85,-8.44 l 1.11,-0.81 2.24,-1.63 1.13,-0.82 1.11,-0.81 c 5.89336,-4.26118 11.85412,-8.42837 17.88,-12.5 5.66019,-3.80326 11.21238,-7.76482 16.65,-11.88 4.1428,-3.11826 8.34353,-6.15879 12.6,-9.12 q 8.96,-6.28 17.82,-12.69 l 1.13,-0.81 c 5.63409,-4.0685 11.25744,-8.15184 16.87,-12.25 l 1.12,-0.81 c 6.18,-4.48 12.46,-8.8 18.77,-13.07 5.80156,-3.94291 11.49371,-8.04446 17.07,-12.3 5.57219,-4.20693 11.23348,-8.29452 16.98,-12.26 q 9.73,-6.74 19.3,-13.68 c 6.09341,-4.41973 12.22026,-8.79319 18.38,-13.12 5.4455,-3.83622 10.86231,-7.713 16.25,-11.63 q 10.16,-7.36 20.46,-14.51 9.58,-6.69 19.04,-13.56 8.05,-5.84 16.19,-11.56 8.8,-6.19 17.5,-12.5 9.23,-6.69 18.55,-13.24 8.28,-5.82 16.45,-11.76 c 6.2412,-4.52483 12.51469,-9.00495 18.82,-13.44 l 2.12,-1.5 1.05,-0.73 1.03,-0.73 c 7.09437,-5.00514 14.15454,-10.05859 21.18,-15.16 l 4.49,-3.25 1.13,-0.83 c 6.35,-4.6 12.8,-9.04 19.28,-13.44 5.17,-3.51 10.24,-7.1 15.2,-10.9 4.69,-3.56 9.5,-6.91 14.33,-10.27 q 9.85,-6.85 19.56,-13.87 8.6,-6.26 17.31,-12.38 8.8,-6.19 17.5,-12.5 8.7,-6.31 17.5,-12.5 12.18,-8.6 24.23,-17.36 l 12.4,-8.95 3.37,-2.44 1.12,-0.8 6.78,-4.91 q 14.67,-10.64 29.5,-21.06 l 9.54,-6.73 13.1,-9.26 q 2.36,-1.64 4.7,-3.32 l 2.24,-1.58 3.1,-2.2 0.92,-0.64 q 2.73,-1.92 5.5,-3.75 m 428,-178 c 34.65,0 67.63,1.87 101.53,7.77 34.27,6.05 67.77,15.34 100.47,27.23 25.77,9.45 51.39,21.09 75.17,34.82 q 3.29,1.91 6.55,3.85 3,1.75 6.02,3.42 c 15.8803,8.72625 31.0652,18.66228 45.42,29.72 q 3.36,2.6 6.78,5.11 c 13.5657,9.93936 26.5597,20.63637 38.92,32.04 q 2.56,2.3 5.2,4.54 c 3.64,3.13 7,6.52 10.36,9.94 2.1265,2.20135 4.3875,4.26866 6.77,6.19 1.58,1.26 3,2.54 4.34,4.06 l 2.51,2.95 c 2.67,3.11 5.54,5.99 8.46,8.86 4,3.95 7.8,7.97 11.43,12.26 q 1.56,1.8 3.16,3.6 c 7.4663,8.43173 14.5759,17.17274 21.31,26.2 q 2.4,3.2 4.87,6.33 c 6.0411,7.77917 11.7658,15.79903 17.16,24.04 l 2.53,3.78 c 5.9459,8.92793 11.6283,18.02852 17.04,27.29 l 0.88,1.5 c 15.74,26.75 29.42,54.55 40.3,83.63 12.1,32.53 21.02,66.04 27.3,100.16 2.7074,15.1557 4.8821,30.40175 6.52,45.71 l 0.2,1.87 c 2.2,20.34 2.03,40.7 1.8,61.13 l -1,1 h -113 l -1,-1 -0.02,-0.93 c -0.58,-29.47 -2.63,-58.92 -8.34,-87.89 -5.18,-25.71 -11.86,-51.05 -21.37,-75.53 -9.97,-25.42 -21.53,-50.12 -35.75,-73.47 -13.052,-21.2442 -27.8783,-41.3459 -44.32,-60.09 q -3.76,-4.2 -7.6,-8.28 -2.59,-2.76 -5.04,-5.63 c -3.6703,-4.22387 -7.4998,-8.30681 -11.48,-12.24 q -1.52,-1.5 -3.03,-3.03 c -4.2156,-4.20423 -8.5922,-8.24392 -13.12,-12.11 l -3.4,-2.96 C 1666.339,447.83659 1656.8208,440.21675 1647,433 l -1.12,-0.83 c -22.4411,-16.65545 -46.2798,-31.3401 -71.25,-43.89 -22.2728,-11.17731 -45.4731,-20.40188 -69.34,-27.57 -25.6185,-7.61272 -51.7958,-13.19993 -78.29,-16.71 l -1.28,-0.17 c -18.13,-2.36 -36.5,-2.82 -54.72,-3.83 z"
   stroke-linecap="round"
   id="path4" />
</g>
		<g
   transform="matrix(0.17010812,0,0,0.17010812,85.223904,-67.033713)"
   id="g5">
<path
   style="opacity:1;fill:#000000;fill-rule:nonzero;stroke:none;stroke-width:1;stroke-linecap:butt;stroke-linejoin:miter;stroke-miterlimit:4;stroke-dasharray:none;stroke-dashoffset:0"
   paint-order="stroke"
   transform="translate(-1541.5627,-628.5)"
   d="m 1371,458 c 22.63,0 22.63,0 30.31,0.69 l 1.46,0.12 c 19.6,1.73 39.2,5.16 58.2,10.22 18.5454,5.1071 36.6211,11.78802 54.03,19.97 17.78,8.44 35.01,18.14 51.07,29.54 8.8793,6.35409 17.4397,13.14234 25.65,20.34 q 1.64,1.44 3.32,2.86 c 10.14,8.65 20.1,17.75 28.76,27.88 q 1.67,1.91 3.36,3.8 c 12.2679,13.68728 23.3259,28.41242 33.05,44.01 10.9,17.6 20.54,35.72 28.21,54.95 7.315,18.38595 13.0394,37.36553 17.11,56.73 1.3458,6.66703 2.5693,13.35815 3.67,20.07 q 1.07,6.38 1.8,12.82 l 0.17,1.45 c 1.3,11.46 0.93,23.04 0.83,34.55 l -1,1 h -116 l -1,-1 -0.05,-0.91 c -0.87,-16.1 -2,-32.02 -5.63,-47.77 -3.11,-13.04 -7.01,-25.99 -12.32,-38.32 -4.83,-11.13 -10.1,-22.03 -16.74,-32.2 -6.6,-9.95 -13.74,-19.58 -21.92,-28.3 l -3.56,-3.7 -2.45,-2.56 c -7.46,-7.9 -15.2,-15.17 -23.93,-21.67 -7.5183,-5.51475 -15.3516,-10.58668 -23.46,-15.19 -11.43,-6.63 -23.3,-11.93 -35.7,-16.51 -11.7029,-4.22728 -23.7244,-7.51437 -35.95,-9.83 -13.75,-2.4 -27.25,-3 -41.29,-4.04 z"
   stroke-linecap="round"
   id="path5" />
</g>
</g>
</g>
<g
   transform="matrix(2.0313196,0,0,2.0313196,510.83158,651.08839)"
   id="text-logo">
<g
   paint-order="stroke"
   id="g7">
		<g
   id="text-logo-path-0">
<path
   style="opacity:1;fill:#000000;fill-rule:nonzero;stroke:none;stroke-width:0;stroke-linecap:butt;stroke-linejoin:miter;stroke-miterlimit:4;stroke-dasharray:none;stroke-dashoffset:0"
   paint-order="stroke"
   transform="translate(-194.745,16.425)"
   d="m 3.06,-24.91 h 7.75 v 24.25 c 0,0.38 0.33,0.71 0.71,0.71 h 7.05 c 0.37,0 0.75,-0.33 0.75,-0.71 v -24.25 h 7.75 c 0.38,0 0.71,-0.33 0.71,-0.7 v -6.59 c 0,-0.37 -0.33,-0.7 -0.71,-0.7 H 3.06 c -0.38,0 -0.71,0.33 -0.71,0.7 v 6.59 c 0,0.37 0.33,0.7 0.71,0.7 z m 52.92,8.46 h -0.24 c 1.18,0 2.12,-0.94 2.12,-2.12 v -10.34 c -0.14,-2.2 -1.98,-3.99 -4.23,-3.99 h -18.1 c -0.37,0 -0.7,0.33 -0.7,0.7 v 31.54 c 0,0.38 0.33,0.71 0.7,0.71 h 7.05 c 0.38,0 0.71,-0.33 0.71,-0.71 v -7.75 h 7.75 c 0.38,0 0.75,0.33 0.75,0.7 v 7.05 c 0,0.38 0.33,0.71 0.71,0.71 h 7.05 c 0.37,0 0.7,-0.33 0.7,-0.71 v -11.51 c 0,-2.35 -1.92,-4.28 -4.27,-4.28 z m -7.29,0 h -5.4 v -8.46 h 5.4 c 0.38,0 0.71,0.33 0.71,0.71 v 7.04 c 0,0.38 -0.33,0.71 -0.71,0.71 z m 26.89,-16.07 -8.18,16.35 c -0.05,0.1 -0.1,0.19 -0.1,0.28 v 15.23 c 0,0.38 0.33,0.71 0.71,0.71 h 7.05 c 0.37,0 0.7,-0.33 0.7,-0.71 v -7.33 h 8.51 v 7.33 c 0,0.38 0.33,0.71 0.71,0.71 h 7.05 c 0.37,0 0.7,-0.33 0.7,-0.71 v -15.23 c 0,-0.09 -0.05,-0.18 -0.09,-0.28 l -8.18,-16.35 c -0.14,-0.24 -0.38,-0.38 -0.66,-0.38 h -7.57 c -0.28,0 -0.51,0.14 -0.65,0.38 z m 0.7,15.51 3.1,-6.21 c 0.14,-0.28 0.38,-0.37 0.66,-0.37 0.24,0 0.47,0.09 0.61,0.37 l 3.1,6.16 c 0.24,0.47 -0.14,1.03 -0.65,1.03 l -6.16,0.05 c -0.52,0 -0.89,-0.56 -0.66,-1.03 z m 46.11,-15.89 h -18.38 c -2.35,0 -4.23,1.93 -4.23,4.28 v 24.39 c 0,2.35 1.93,4.28 4.28,4.28 h 4.18 V 0 h 14.15 c 0.37,0 0.7,-0.33 0.7,-0.7 v -6.59 c 0,-0.37 -0.33,-0.7 -0.7,-0.7 h -13.44 c -0.38,0 -0.71,-0.33 -0.71,-0.71 v -15.5 c 0,-0.38 0.33,-0.71 0.71,-0.71 h 13.44 c 0.37,0 0.7,-0.33 0.7,-0.7 v -6.59 c 0,-0.37 -0.33,-0.7 -0.7,-0.7 z m 24.72,0.7 v 10.86 l -4.28,6.68 -4.23,-6.68 V -32.2 c 0,-0.37 -0.33,-0.7 -0.7,-0.7 h -7.05 c -0.38,0 -0.71,0.33 -0.71,0.7 v 10.63 c 0,0.14 0,0.28 0.1,0.37 l 8.27,13.02 c 0.09,0.1 0.09,0.24 0.09,0.38 v 7.85 h 8.51 V -7.8 c 0,-0.14 0,-0.28 0.09,-0.38 l 8.23,-13.02 c 0.09,-0.09 0.14,-0.23 0.14,-0.37 V -32.2 c 0,-0.37 -0.33,-0.7 -0.71,-0.7 h -7.05 c -0.37,0 -0.7,0.33 -0.7,0.7 z m 32.48,0 v 11.43 h -8.51 V -32.2 c 0,-0.37 -0.33,-0.7 -0.71,-0.7 h -7.05 c -0.37,0 -0.7,0.33 -0.7,0.7 v 31.54 c 0,0.38 0.33,0.71 0.7,0.71 h 7.05 c 0.38,0 0.71,-0.33 0.71,-0.71 v -12.12 h 8.51 v 12.12 c 0,0.38 0.33,0.71 0.7,0.71 h 7.05 c 0.38,0 0.71,-0.33 0.71,-0.71 V -32.2 c 0,-0.37 -0.33,-0.7 -0.71,-0.7 h -7.05 c -0.37,0 -0.7,0.33 -0.7,0.7 z m 36.7,-0.7 h -16.96 c -2.35,0 -4.23,1.93 -4.23,4.28 v 24.39 c 0,2.35 1.92,4.28 4.27,4.28 h 4.19 V 0 h 8.5 v 0.05 h 4.19 c 2.35,0 4.27,-1.93 4.27,-4.28 v -24.39 c 0,-2.35 -1.88,-4.28 -4.23,-4.28 z m -12.73,24.2 v -15.5 c 0,-0.38 0.33,-0.71 0.7,-0.71 h 7.05 c 0.38,0 0.75,0.33 0.75,0.71 v 15.5 c 0,0.38 -0.37,0.71 -0.75,0.71 h -7.05 c -0.37,0 -0.7,-0.33 -0.7,-0.71 z m 57.9,8.04 V -32.9 H 253 l -7.85,15.42 c -0.14,0.23 -0.37,0.37 -0.61,0.37 -0.28,0 -0.52,-0.14 -0.66,-0.37 l -7.66,-15.04 c -0.14,-0.24 -0.33,-0.38 -0.61,-0.38 h -7.33 c -0.38,0 -0.71,0.33 -0.71,0.7 v 31.54 c 0,0.38 0.33,0.71 0.71,0.71 h 7.05 c 0.37,0 0.7,-0.33 0.7,-0.71 v -15.6 l 4.05,7.94 c 0.14,0.24 0.37,0.38 0.65,0.38 h 7.57 c 0.28,0 0.52,-0.14 0.66,-0.38 l 4.04,-7.94 v 15.6 c 0,0.38 0.33,0.71 0.71,0.71 h 7.05 c 0.37,0 0.7,-0.33 0.7,-0.71 z M 289,-32.9 h -19.78 c -0.38,0 -0.71,0.33 -0.71,0.7 v 31.54 c 0,0.38 0.33,0.71 0.71,0.71 H 289 c 0.38,0 0.71,-0.33 0.71,-0.71 v -6.58 c 0,-0.37 -0.33,-0.7 -0.71,-0.7 h -12.03 v -4.47 h 7.76 c 0.37,0 0.75,-0.37 0.75,-0.75 v -6.53 c 0,-0.38 -0.38,-0.76 -0.75,-0.76 h -7.76 v -4.46 H 289 c 0.38,0 0.71,-0.33 0.71,-0.7 v -6.59 c 0,-0.37 -0.33,-0.7 -0.71,-0.7 z m 24.73,17.2 v 7.71 h -8.51 V -32.2 c 0,-0.37 -0.33,-0.7 -0.71,-0.7 h -7.05 c -0.37,0 -0.7,0.33 -0.7,0.7 v 31.54 c 0,0.38 0.33,0.71 0.7,0.71 h 7.76 V 0 h 16.26 c 0.38,0 0.71,-0.33 0.71,-0.7 v -15 c 0,-0.37 -0.33,-0.75 -0.71,-0.75 h -7.05 c -0.38,0 -0.7,0.38 -0.7,0.75 z m 23.78,-16.82 -8.18,16.35 c -0.05,0.1 -0.09,0.19 -0.09,0.28 v 15.23 c 0,0.38 0.32,0.71 0.7,0.71 h 7.05 c 0.38,0 0.71,-0.33 0.71,-0.71 v -7.33 h 8.5 v 7.33 c 0,0.38 0.33,0.71 0.71,0.71 h 7.05 c 0.37,0 0.7,-0.33 0.7,-0.71 v -15.23 c 0,-0.09 -0.04,-0.18 -0.09,-0.28 l -8.18,-16.35 c -0.14,-0.24 -0.38,-0.38 -0.66,-0.38 h -7.56 c -0.29,0 -0.52,0.14 -0.66,0.38 z m 0.7,15.51 3.1,-6.21 c 0.15,-0.28 0.38,-0.37 0.66,-0.37 0.24,0 0.47,0.09 0.61,0.37 l 3.11,6.16 c 0.23,0.47 -0.15,1.03 -0.66,1.03 l -6.16,0.05 c -0.52,0 -0.89,-0.56 -0.66,-1.03 z m 45.45,-3.39 c 0.61,-0.75 0.94,-1.64 0.94,-2.68 v -5.54 c 0,-2.35 -1.93,-4.28 -4.28,-4.28 h -17.9 c -0.38,0 -0.71,0.33 -0.71,0.7 v 31.54 c 0,0.38 0.33,0.71 0.71,0.71 h 7.75 V 0 h 8.51 v 0.05 h 4.18 c 2.35,0 4.28,-1.93 4.28,-4.28 v -11.98 c 0,-2.07 -1.5,-3.81 -3.48,-4.19 z m -8.6,-0.05 h -4.89 v -4.46 h 4.89 c 0.38,0 0.71,0.33 0.71,0.71 v 3.05 c 0,0.38 -0.33,0.7 -0.71,0.7 z m 3.62,8.7 v 3.05 c 0,0.38 -0.38,0.71 -0.75,0.71 h -7.76 v -4.47 h 7.76 c 0.37,0 0.75,0.33 0.75,0.71 z"
   stroke-linecap="round"
   id="path6" />
</g>
</g>
</g>
<g
   transform="matrix(2.0313196,0,0,2.0313196,510.59916,747.60826)"
   id="tagline-17010681-394a-435c-859e-febff18d291b-logo">
<g
   paint-order="stroke"
   id="g8">
		<g
   id="tagline-17010681-394a-435c-859e-febff18d291b-logo-path-0">
<path
   style="opacity:1;fill:#000000;fill-rule:nonzero;stroke:none;stroke-width:0;stroke-linecap:butt;stroke-linejoin:miter;stroke-miterlimit:4;stroke-dasharray:none;stroke-dashoffset:0"
   paint-order="stroke"
   transform="translate(-78.435,11.03)"
   d="M 1.2,-22.05 V 0 H 8.61 V -3.33 H 4.44 v -6.06 h 3 v -3.54 h -3 v -5.79 h 4.17 v -3.33 z m 21.2,15.58 -3.18,0.29 q 0,2.97 0.81,4.44 v 0 q 1.08,1.97 3.89,1.97 v 0 q 2.45,0 3.58,-1.67 v 0 q 0.94,-1.39 0.94,-3.86 v 0 q 0,-1.57 -0.97,-3.46 v 0 q -0.6,-1.17 -2.07,-3.35 v 0 q -1.37,-2.01 -1.74,-2.66 v 0 q -0.81,-1.39 -0.81,-2.35 v 0 q 0,-2.16 1.1,-2.2 v 0 q 0.71,0 1.06,1.02 v 0 q 0.25,0.77 0.25,2.16 v 0 l 3.18,-0.3 q 0,-2.34 -0.83,-3.91 v 0 q -1.04,-1.94 -3.6,-1.94 v 0 q -0.06,0 -0.12,0 v 0 q -2.09,0.04 -3.26,1.68 v 0 q -0.95,1.38 -0.95,3.49 v 0 q 0,0.89 0.26,1.75 v 0 q 0.5,1.72 1.6,3.43 v 0 q 1.08,1.69 2.03,3.03 v 0 q 0.44,0.68 0.84,1.32 v 0 q 0.85,1.53 0.85,2.43 v 0 q 0,2.44 -1.34,2.44 v 0 q -0.92,0 -1.26,-1.21 v 0 Q 22.4,-4.7 22.4,-6.47 Z m 16.1,-15.58 v 3.33 h 3.06 V 0 h 3.24 v -18.72 h 3.06 v -3.33 z M 58.18,-3.33 V 0 h 3.15 v -3.33 z m 28.3,0.12 V 0 h 8.79 v -3.21 h -5.13 q 1.89,-3.18 3.18,-6.18 v 0 q 1.89,-4.47 1.89,-7.41 v 0 q 0,-2.55 -0.89,-3.9 v 0 q -1.09,-1.59 -3.43,-1.59 v 0 q -2.43,0 -3.47,1.74 v 0 q -0.85,1.42 -0.85,3.95 v 0 1.54 h 3.25 v -1.54 q 0,-1.17 0.21,-1.89 v 0 q 0.25,-0.8 0.86,-0.8 v 0 q 0.65,0 0.91,0.91 v 0 q 0.18,0.61 0.18,1.78 v 0 q -0.05,1.76 -0.93,4.38 v 0 q -0.74,2.22 -1.86,4.35 v 0 q -1.29,2.49 -2.71,4.66 z m 20.38,-14.31 v 12.99 q 0.04,1.42 0.53,2.41 v 0 q 0.44,0.98 1.26,1.61 v 0 q 0.92,0.74 2.52,0.74 v 0 q 1.56,0 2.49,-0.74 v 0 q 0.89,-0.68 1.3,-1.61 v 0 q 0.48,-0.99 0.53,-2.41 v 0 -12.99 q -0.05,-1.39 -0.53,-2.37 v 0 q -0.42,-0.98 -1.3,-1.64 v 0 q -1.01,-0.76 -2.49,-0.76 v 0 q -1.51,0 -2.52,0.76 v 0 q -0.81,0.61 -1.26,1.64 v 0 q -0.49,0.98 -0.53,2.37 z m 3.24,12.99 v 0 -12.99 q 0,-0.5 0.11,-0.81 v 0 q 0.25,-0.82 0.96,-0.82 v 0 q 0.42,0 0.67,0.25 v 0 q 0.41,0.52 0.41,1.38 v 0 12.99 q 0,0.53 -0.12,0.81 v 0 q -0.2,0.8 -0.96,0.8 v 0 q -0.4,0 -0.63,-0.23 v 0 q -0.44,-0.51 -0.44,-1.38 z m 16.66,1.32 V 0 h 8.78 v -3.21 h -5.12 q 1.89,-3.18 3.18,-6.18 v 0 q 1.89,-4.47 1.89,-7.41 v 0 q 0,-2.55 -0.9,-3.9 v 0 q -1.08,-1.59 -3.43,-1.59 v 0 q -2.43,0 -3.47,1.74 v 0 q -0.85,1.42 -0.85,3.95 v 0 1.54 h 3.26 v -1.54 q 0,-1.17 0.2,-1.89 v 0 q 0.25,-0.8 0.86,-0.8 v 0 q 0.65,0 0.91,0.91 v 0 q 0.18,0.61 0.18,1.78 v 0 q -0.05,1.76 -0.92,4.38 v 0 q -0.75,2.22 -1.86,4.35 v 0 q -1.29,2.49 -2.71,4.66 z m 23.7,-3.21 h -3.24 q 0,2.99 0.63,4.41 v 0 q 0.97,2.24 3.59,2.24 v 0 q 2.59,0 3.6,-2.12 v 0 q 0.63,-1.29 0.63,-3.63 v 0 -4.92 q 0,-1.37 -0.54,-2.55 v 0 Q 154.21,-15 152.09,-15 v 0 q -0.36,-0.04 -0.68,0.09 v 0 q -0.5,0.16 -1.19,0.66 v 0 -4.59 h 5.04 v -3.21 h -7.83 v 11.61 h 2.72 q 0,-0.44 0.37,-1.02 v 0 q 0.42,-0.6 0.89,-0.6 v 0 q 0.5,0 0.76,0.45 0.27,0.45 0.27,1.17 v 0 4.92 q 0,1.64 -0.24,2.31 v 0 q -0.22,0.63 -0.76,0.63 v 0 q -0.56,0 -0.78,-0.66 v 0 q -0.2,-0.6 -0.2,-2.31 v 0 z"
   stroke-linecap="round"
   id="path7" />
</g>
</g>
</g>
<g
   transform="matrix(2.0313196,0,0,2.0313196,511.09432,446.02408)"
   id="tagline-5392bd15-a68f-49cb-a6cb-566def289ede-logo">
<g
   paint-order="stroke"
   id="g9">
		<g
   id="tagline-5392bd15-a68f-49cb-a6cb-566def289ede-logo-path-0">
<path
   style="opacity:1;fill:#1c861c;fill-rule:nonzero;stroke:none;stroke-width:0;stroke-linecap:butt;stroke-linejoin:miter;stroke-miterlimit:4;stroke-dasharray:none;stroke-dashoffset:0"
   paint-order="stroke"
   transform="translate(-36.24,42)"
   d="m 45.84,-66 h 25.2 V -84 H 1.44 v 18 h 25.2 V 0 h 19.2 z"
   stroke-linecap="round"
   id="path8" />
</g>
</g>
</g>
</svg>
