<?xml version="1.0" encoding="UTF-8" standalone="no" ?>
<!DOCTYPE svg PUBLIC "-//W3C//DTD SVG 1.1//EN" "http://www.w3.org/Graphics/SVG/1.1/DTD/svg11.dtd">
<svg xmlns="http://www.w3.org/2000/svg" xmlns:xlink="http://www.w3.org/1999/xlink" version="1.1" width="1280" height="1024" viewBox="0 0 1280 1024" xml:space="preserve">
<desc>Created with Fabric.js 5.3.0</desc>
<defs>
</defs>
<g transform="matrix(1 0 0 1 640 512)" id="background-logo"  >
<rect style="stroke: none; stroke-width: 0; stroke-dasharray: none; stroke-linecap: butt; stroke-dashoffset: 0; stroke-linejoin: miter; stroke-miterlimit: 4; fill: rgb(255,255,255); fill-opacity: 0; fill-rule: nonzero; opacity: 1;"  paint-order="stroke"  x="-640" y="-512" rx="0" ry="0" width="1280" height="1024" />
</g>
<g transform="matrix(1.354469051477151 0 0 1.354469051477151 661.1752289030857 359.4180316974557)" id="logo-logo"  >
<g style=""  paint-order="stroke"   >
		<g transform="matrix(0.1701081249093005 0 0 0.1701081249093005 0.08621062130276869 -65.16252383367113)"  >
<path style="stroke: none; stroke-width: 1; stroke-dasharray: none; stroke-linecap: butt; stroke-dashoffset: 0; stroke-linejoin: miter; stroke-miterlimit: 4; fill: rgb(255,255,255); fill-rule: nonzero; opacity: 1;"  paint-order="stroke"  transform=" translate(-1041.0711111111113, -639.4999999999999)" d="M 1372 221 C 1411.17 221 1411.17 221 1423.02 222.25 L 1424.6399999999999 222.42 C 1460.11 226.14 1495.1699999999998 232.31 1529.4999999999998 242.08999999999997 C 1563.1799999999998 251.76999999999998 1595.5199999999998 264.69 1627.0099999999998 280.01 C 1636.1018420960074 284.54506878042434 1645.0120435999593 289.4355050982054 1653.7199999999998 294.66999999999996 Q 1656.7199999999998 296.42 1659.7399999999998 298.09000000000003 C 1675.6203438524287 306.8162494812857 1690.8052228545826 316.75228215288433 1705.1599999999999 327.81000000000006 Q 1708.5199999999998 330.4100000000001 1711.9399999999998 332.9200000000001 C 1725.505715949841 342.85936355118645 1738.499707772125 353.55637017980877 1750.8600000000001 364.96000000000026 Q 1753.4199999999998 367.2600000000001 1756.06 369.5000000000001 C 1759.7 372.6300000000001 1763.06 376.0200000000001 1766.4199999999998 379.4400000000001 C 1768.5464833635463 381.64135423154363 1770.8074931156189 383.7086585691108 1773.1899999999998 385.6300000000001 C 1774.7699999999998 386.8900000000001 1776.1899999999998 388.17000000000013 1777.5299999999997 389.6900000000001 L 1780.0399999999997 392.6400000000001 C 1782.7099999999998 395.7500000000001 1785.5799999999997 398.6300000000001 1788.4999999999998 401.5000000000001 C 1792.4999999999998 405.4500000000001 1796.2999999999997 409.47000000000014 1799.9299999999998 413.7600000000001 Q 1801.4899999999998 415.5600000000001 1803.09 417.3600000000001 C 1810.5563080170878 425.7917299522978 1817.6658824377664 434.5327365136203 1824.3999999999999 443.56000000000006 Q 1826.8 446.7600000000001 1829.2699999999998 449.8900000000001 C 1835.3111396196769 457.6691729711196 1841.0357998449867 465.6890349650852 1846.4299999999998 473.93 L 1848.9599999999998 477.7100000000001 C 1854.905865861062 486.6379339142231 1860.588314186311 495.7385216369956 1865.9999999999998 504.99999999999994 L 1866.88 506.5 C 1882.6200000000001 533.25 1896.3000000000002 561.05 1907.18 590.13 C 1919.28 622.66 1928.2 656.17 1934.48 690.29 C 1939.45 717.6899999999999 1942.98 745.55 1943.1200000000001 773.41 Q 1943.16 785.2099999999999 1943.0000000000002 797 L 1942.0000000000002 798 L 1831.0000000000002 798 L 1830.0000000000002 797 L 1829.9800000000002 796.07 C 1829.4000000000003 766.6 1827.3500000000001 737.1500000000001 1821.6400000000003 708.1800000000001 C 1816.4600000000003 682.47 1809.7800000000004 657.1300000000001 1800.2700000000004 632.6500000000001 C 1790.3000000000004 607.2300000000001 1778.7400000000005 582.5300000000001 1764.5200000000004 559.1800000000001 C 1751.4679572247385 537.9358005506256 1736.6417370451654 517.8340954380229 1720.2000000000003 499.0899999999999 Q 1716.4400000000005 494.89000000000004 1712.6000000000006 490.81000000000006 Q 1710.0100000000007 488.05000000000007 1707.5600000000006 485.18000000000006 C 1703.8896723791054 480.95613392252864 1700.0602457430577 476.8731912374046 1696.0800000000006 472.93999999999994 Q 1694.5600000000006 471.44000000000005 1693.0500000000006 469.9100000000001 C 1688.834361367404 465.70576535655823 1684.4577597254886 461.6660819812842 1679.9300000000007 457.8000000000001 L 1676.5300000000007 454.8400000000001 C 1667.3389511193975 446.8365930945992 1657.8208171526228 439.2167480262105 1648.0000000000002 432.0000000000001 L 1646.88 431.17 C 1624.4388650800383 414.51455020462333 1600.6001518393318 399.82990284834807 1575.6300000000003 387.28000000000003 C 1553.357169114719 376.10268804169147 1530.1569077056165 366.8781249172473 1506.2900000000002 359.71 C 1480.6714741306303 352.0972762897907 1454.4941851951553 346.5100684968187 1427.9999999999998 343 L 1426.72 342.83 C 1408.59 340.46999999999997 1390.22 340.01 1372 339 z M 942 400 Q 943.79 400.18 945.54 400.55 L 947 401 C 948.9813944338987 402.1164377140883 950.8826577340109 403.3694671298037 952.69 404.75 L 954.37 405.95 C 956.9576887827102 407.7799495238099 959.531100011036 409.6300055234483 962.0900000000001 411.50000000000017 L 971.0600000000001 417.99 Q 978.7700000000001 423.57 986.5600000000001 429.06 L 987.62 429.81 L 1003.44 440.94 L 1004.49 441.68 Q 1013.36 447.95 1022.13 454.32 C 1027.5588727425645 458.25214134872334 1033.0156777625084 462.1455733971615 1038.4999999999995 465.9999999999989 Q 1047.26 472.15 1055.94 478.44 L 1057.0700000000002 479.26 L 1067.2200000000003 486.61 C 1077.8608187550017 494.3281524572982 1088.574634393601 501.94516201989904 1099.3600000000008 509.4600000000004 Q 1108.1600000000003 515.6 1116.8900000000003 521.8100000000001 L 1124.2000000000003 526.96 L 1128.4400000000003 529.94 L 1129.5000000000002 530.6800000000001 C 1133.8615562040336 533.7517749751441 1138.198362832374 536.8585419064377 1142.5100000000002 540 L 1147.0000000000002 543.2500000000001 C 1153.2000000000003 547.7500000000001 1159.4900000000002 552.0900000000001 1165.8300000000002 556.3800000000001 Q 1174.17 562.0200000000001 1182.19 568.1300000000001 C 1187.3393148023342 572.057554852453 1192.5911340809778 575.848868198369 1197.9400000000003 579.5000000000002 L 1198.94 580.1800000000001 L 1200.94 581.5400000000001 L 1201.94 582.2300000000001 L 1202.94 582.9100000000001 C 1207.1332027527424 585.7784413142004 1211.3000442018738 588.6852299091146 1215.4400000000003 591.6300000000003 Q 1224.3300000000002 597.9200000000001 1233.14 604.3300000000002 Q 1241.2700000000002 610.2100000000002 1249.5 616.0000000000001 Q 1258.87 622.6000000000001 1268.14 629.3200000000002 Q 1275.72 634.8200000000002 1283.39 640.2000000000002 Q 1293.65 647.4100000000002 1303.71 654.9000000000002 C 1309.2746997320817 659.0248613182243 1314.8918239564832 663.0785248534603 1320.56 667.0600000000002 Q 1329.29 673.1800000000002 1337.94 679.4400000000002 L 1339.0700000000002 680.2600000000002 L 1349.2200000000003 687.6100000000002 Q 1362.0200000000002 696.9300000000003 1375.0000000000002 706.0000000000002 C 1384.0400000000002 712.3000000000002 1392.9700000000003 718.7200000000003 1401.8900000000003 725.2000000000003 L 1413.1900000000003 733.3800000000002 Q 1421.8300000000004 739.6100000000002 1430.5500000000002 745.7400000000002 Q 1438.8300000000002 751.5600000000003 1447.0000000000002 757.5000000000002 C 1453.1757004710576 761.9765267271508 1459.382517808028 766.4099676821304 1465.62 770.8000000000006 L 1473.0000000000002 776.0000000000002 Q 1487.3200000000002 786.0400000000002 1501.4800000000002 796.2900000000002 Q 1508.6400000000003 801.4700000000001 1515.8400000000001 806.5900000000001 Q 1521.0200000000002 810.2900000000002 1526.16 814.0200000000001 Q 1538.63 823.07 1551.26 831.8800000000001 Q 1560.86 838.5700000000002 1570.31 845.44 Q 1578.36 851.2800000000001 1586.5 857 Q 1595.87 863.6 1605.13 870.32 Q 1613.2800000000002 876.22 1621.5 882 Q 1630.87 888.6 1640.13 895.32 Q 1648.2800000000002 901.22 1656.5 907 Q 1665.87 913.6 1675.13 920.32 Q 1683.2800000000002 926.22 1691.5 932 Q 1700.3 938.19 1709 944.5 Q 1718.87 951.66 1728.85 958.66 L 1730.9199999999998 960.12 L 1731.9399999999998 960.84 Q 1737.5199999999998 964.77 1743.0599999999997 968.75 L 1743.9899999999998 969.41 L 1749 973 C 1748.7433569003092 974.3513425573041 1748.4094761154747 975.6868656966418 1748 977 C 1747.3290974598522 978.2711497247674 1746.57060079893 979.494100288193 1745.73 980.66 L 1742.75 985.06 L 1741.13 987.4599999999999 C 1738.8958991493846 990.7751869015192 1736.649216281447 994.08187741338 1734.3900000000003 997.3799999999998 Q 1724.3600000000001 1012.1199999999999 1714.1100000000001 1026.6999999999998 Q 1708.5100000000002 1034.6999999999998 1703.0000000000002 1042.7499999999998 C 1699.4930429412552 1047.9466478862182 1695.8245867957153 1053.0324620879894 1692.0000000000002 1057.9999999999998 C 1689.7027819292675 1056.9472292386704 1687.498322542276 1055.7028303130849 1685.4100000000003 1054.2799999999997 L 1684.5200000000002 1053.6399999999996 L 1683.5500000000002 1052.9399999999996 Q 1681.9500000000003 1051.8199999999997 1680.38 1050.6899999999996 L 1678.1100000000001 1049.0799999999997 Q 1672.3100000000002 1044.9499999999996 1666.5500000000002 1040.7799999999997 L 1665.4500000000003 1039.9799999999998 L 1664.3400000000004 1039.1799999999998 L 1663.2400000000005 1038.37 L 1661.0100000000004 1036.75 C 1655.1757492608674 1032.5333770440634 1649.2750076190102 1028.4095253994435 1643.3100000000004 1024.38 C 1637.2769096274155 1020.2968550014701 1631.3289694300247 1016.0892874403115 1625.4700000000003 1011.7600000000001 Q 1618.1100000000006 1006.32 1610.6200000000006 1001.0600000000001 L 1609.5500000000006 1000.3100000000001 L 1604.1500000000005 996.5100000000001 L 1593.5000000000005 989.0000000000001 L 1589.2500000000005 986.0000000000001 L 1588.1800000000005 985.2500000000001 Q 1585.0100000000004 983.0000000000001 1581.8400000000006 980.7800000000001 C 1573.8097358085383 975.136652378998 1565.8195354705892 969.4365094595599 1557.8700000000006 963.6800000000002 C 1552.4411272574357 959.7478586512766 1546.9843222374916 955.8544266028375 1541.5000000000002 952 Q 1532.13 945.4 1522.87 938.68 C 1517.093211128562 934.4982532532888 1511.286394007943 930.3581459835939 1505.4499999999998 926.2600000000001 C 1501.4775985467452 923.4782521902913 1497.5274726208665 920.6648291679778 1493.5999999999997 917.8199999999997 L 1492.49 917.01 L 1490.25 915.38 C 1483.6792702975108 910.6061022913076 1477.0317337148322 905.9388248511121 1470.3099999999997 901.38 C 1463.9686827861208 897.0768289249603 1457.7173373287426 892.64254121386 1451.56 888.08 Q 1444.6799999999998 883.0300000000001 1437.69 878.12 C 1431.6994563855997 873.9129965514171 1425.7393016906767 869.6628862404399 1419.81 865.3699999999998 L 1415.27 862.09 L 1414.17 861.2900000000001 Q 1409.0700000000002 857.6 1403.94 853.94 L 1403.0900000000001 853.34 Q 1398.0500000000002 849.74 1392.9900000000002 846.1700000000001 L 1391.9400000000003 845.44 L 1388.7500000000002 843.19 L 1387.6800000000003 842.4300000000001 Q 1378.7300000000002 836.11 1369.8700000000003 829.6800000000001 Q 1361.1900000000003 823.4000000000001 1352.4400000000003 817.2600000000001 Q 1344.9100000000003 811.9600000000002 1337.4800000000002 806.5600000000001 Q 1326.5800000000002 798.6600000000001 1315.5000000000002 791.0000000000001 Q 1302.1500000000003 781.7400000000001 1289.0000000000002 772.1800000000001 Q 1283.6000000000001 768.2700000000001 1278.1600000000003 764.4000000000001 C 1273.1829714886194 760.8676268091601 1268.232828871526 757.2975239519836 1263.3100000000004 753.69 L 1262.1700000000003 752.86 C 1255.9200000000003 748.33 1249.5700000000004 743.96 1243.1700000000003 739.62 C 1237.34229862652 735.6609634904936 1231.6267206009586 731.5393447976152 1226.0300000000002 727.26 C 1220.6331517457852 723.1833342532138 1215.120901693005 719.2617334897116 1209.5 715.5 C 1203.547101979534 711.5033151307664 1197.7113174775343 707.334897629338 1192 703 C 1186.3280526108508 698.6909264963136 1180.5357517230584 694.5426119860007 1174.6299999999999 690.5599999999997 Q 1165.18 684.18 1155.93 677.5 L 1154.8200000000002 676.69 L 1149.2400000000002 672.6300000000001 L 1137.9400000000003 664.4300000000001 L 1136.8100000000002 663.6200000000001 Q 1128.17 657.3900000000001 1119.4500000000003 651.2600000000001 Q 1110.6100000000004 645.0300000000001 1101.8600000000004 638.6800000000001 Q 1093.7300000000002 632.7800000000001 1085.5000000000005 627.0000000000001 Q 1076.1300000000006 620.4000000000001 1066.8700000000003 613.6800000000001 Q 1058.2000000000003 607.4000000000001 1049.4500000000003 601.2600000000001 C 1044.0010929556422 597.4239085706577 1038.5809414836067 593.547133563291 1033.1900000000005 589.6299999999998 C 1026.8364599674815 585.0262508450335 1020.4395070293616 580.4827141828879 1013.9999999999993 575.9999999999994 C 1005.3479255754957 569.9493876034992 996.7541954609025 563.8157710748521 988.2200000000003 557.5999999999999 L 978.12 550.3100000000001 L 972.5600000000001 546.2900000000001 L 971.44 545.4900000000001 L 959.2600000000001 536.6800000000002 L 956.8900000000001 534.9600000000002 L 953.5900000000001 532.5800000000002 L 952.6200000000001 531.8800000000001 C 950.7750205955645 530.5460712580532 948.9012440865998 529.2524319600492 946.9999999999999 528 L 941 528 C 931.83 534.17 922.68 540.37 913.88 547.06 C 908.5404948706338 551.1244800330239 903.1228133982362 555.0852219340751 897.63 558.9399999999999 Q 888.79 565.1099999999999 880.06 571.4399999999999 L 878.93 572.2499999999999 L 871 578 L 861.94 584.56 L 860.8100000000001 585.38 Q 852.1700000000001 591.61 843.45 597.74 Q 835.21 603.53 827.0600000000001 609.44 L 825.9300000000001 610.25 C 820.2959057660248 614.3184934633124 814.6725528703623 618.4018410016573 809.0599999999993 622.5000000000014 L 807.94 623.31 C 801.7527374683428 627.765501921412 795.4952858386109 632.1227151766382 789.1700000000001 636.3799999999999 C 783.368437018193 640.322908801313 777.676289813235 644.4244559964496 772.0999999999998 648.6800000000001 C 766.5278114086993 652.8869283233073 760.8665238750174 656.974524622656 755.12 660.9399999999999 Q 745.4 667.68 735.82 674.6199999999999 C 728.257672663144 680.117872018677 720.6440052335049 685.544776824041 712.98 690.8999999999994 Q 708 694.3999999999999 703.0600000000001 697.9399999999998 L 702.22 698.5399999999998 C 698.3402736301503 701.3131341964134 694.4702499999734 704.0998178784363 690.6099999999997 706.9000000000007 L 689.48 707.7199999999999 L 687.1800000000001 709.3699999999999 L 686.0400000000001 710.2099999999999 Q 677.2900000000001 716.54 668.44 722.7399999999999 Q 662.49 726.9199999999998 656.6 731.18 L 655.49 731.9899999999999 L 653.25 733.6199999999999 C 646.6792702975108 738.3938977086923 640.0317337148324 743.0611751488879 633.31 747.6199999999999 C 626.9686827861209 751.9231710750396 620.7173373287426 756.3574587861399 614.56 760.9199999999998 Q 607.6899999999999 765.9699999999998 600.6899999999999 770.8799999999999 Q 591.8 777.1199999999999 582.9999999999999 783.4999999999999 Q 573.7699999999999 790.1899999999999 564.4499999999999 796.7399999999999 Q 556.7199999999999 802.18 549.0799999999999 807.7399999999999 C 543.1171837127682 812.0830915566719 537.0898451024731 816.3368991157079 531 820.5000000000002 C 523.0121788883467 825.9934198497112 515.1079407289353 831.607395834717 507.2899999999996 837.3400000000003 Q 501.61 841.47 495.94 845.5600000000001 L 494.81 846.3800000000001 Q 486.17 852.6100000000001 477.45 858.7400000000001 Q 469.21 864.5300000000001 461.06 870.4400000000002 L 459.93 871.2500000000001 L 452 877 L 442.94 883.56 L 441.81 884.38 Q 433.17 890.62 424.44 896.74 Q 416.27 902.5 408.19 908.37 C 401.814270996913 912.993917388518 395.39734811521816 917.5607664004253 388.94 922.0699999999998 L 387.66 922.95 L 382.63000000000005 926.46 C 369.6716012604985 935.5248122307742 356.7944210260671 944.7051783621814 344.00000000000085 954 L 334.94 960.56 L 333.81 961.38 Q 325.17 967.61 316.45 973.74 Q 308.17 979.5600000000001 300 985.5 Q 290.77 992.19 281.45 998.74 C 277.47759854674547 1001.5217478097086 273.5274726208666 1004.3351708320224 269.59999999999974 1007.1800000000004 L 268.48999999999995 1007.99 L 266.24999999999994 1009.62 Q 255.89999999999995 1017.13 245.29999999999995 1024.32 C 239.4887095086208 1028.2672860002938 233.74129915163306 1032.307808826668 228.0599999999999 1036.4399999999998 C 219.8005844783043 1042.4636270662897 211.49028626905186 1048.4171740385023 203.1300000000001 1054.3 L 202.03999999999994 1055.0799999999997 C 201.03999999999994 1055.7799999999997 200.06999999999994 1056.4199999999996 198.99999999999994 1056.9999999999998 C 197.65999999999994 1057.4499999999998 196.39999999999995 1057.7399999999998 194.99999999999994 1057.9999999999998 L 194.23999999999995 1056.8599999999997 L 183.22999999999996 1040.3099999999997 Q 174.60999999999996 1027.2999999999997 165.74999999999997 1014.4399999999997 C 162.83496649710153 1010.2183421243335 159.96149439304523 1005.9681368660138 157.12999999999985 1001.6899999999998 C 151.15788777568483 992.7451619570592 145.11436132070452 983.848210987207 139.00000000000009 975.0000000000003 L 140 972 L 141.27 971.1 Q 153.70000000000002 962.4 166 953.5 C 172.17570047105733 949.0234732728494 178.38251780802744 944.5900323178707 184.61999999999932 940.2000000000005 L 193.05 934.26 L 200.44 929.06 L 201.5 928.3199999999999 Q 210.35 922.05 219.13 915.68 Q 227.79999999999998 909.4 236.55 903.26 Q 244.83 897.4399999999999 253 891.5 Q 264.89 882.9 276.9 874.48 L 283.25 870 L 284.31 869.25 L 287.5 867 L 299.16 858.78 C 307.1902641914624 853.1366523789976 315.18046452941155 847.4365094595598 323.1300000000005 841.6799999999998 Q 331.8 835.4 340.55 829.26 C 344.52240145325453 826.4782521902914 348.47252737913294 823.664829167978 352.3999999999998 820.82 L 353.51000000000005 820.01 L 355.75000000000006 818.38 L 356.88000000000005 817.56 L 357.99000000000007 816.75 C 363.8833649305731 812.4888208874385 369.84411849288796 808.3216274014801 375.87000000000006 804.25 C 381.53018581649985 800.4467445120436 387.08237720120803 796.485180929441 392.52 792.37 C 396.66279518885824 789.2517398039653 400.8635292735534 786.2112084664718 405.12 783.2500000000001 Q 414.08000000000004 776.97 422.94000000000005 770.56 L 424.07000000000005 769.75 C 429.70409151422797 765.6815027808007 435.32744439999334 761.5981552496429 440.93999999999903 757.5000000000005 L 442.06000000000006 756.69 C 448.24000000000007 752.21 454.52000000000004 747.8900000000001 460.83000000000004 743.62 C 466.6315629818071 739.677091198687 472.3237101867649 735.5755440035505 477.9000000000002 731.3199999999999 C 483.4721885913007 727.1130716766927 489.13347612498274 723.025475377344 494.88000000000017 719.06 Q 504.61000000000007 712.32 514.1800000000001 705.3800000000001 C 520.2734149891272 700.9602701643919 526.4002578097693 696.586811088939 532.5600000000006 692.2599999999998 C 538.0054975041276 688.4237762600698 543.4223147500026 684.547001825022 548.81 680.6300000000002 Q 558.97 673.2700000000001 569.2700000000001 666.1200000000001 Q 578.8500000000001 659.4300000000001 588.3100000000001 652.5600000000002 Q 596.36 646.7200000000001 604.5000000000001 641.0000000000002 Q 613.3000000000001 634.8100000000002 622.0000000000001 628.5000000000002 Q 631.2300000000001 621.8100000000002 640.5500000000001 615.2600000000002 Q 648.83 609.4400000000002 657.0000000000001 603.5000000000002 C 663.2411963574416 598.9751684594938 669.5146902921616 594.4950537685994 675.8199999999988 590.0600000000013 L 677.9400000000002 588.5600000000002 L 678.9900000000001 587.8300000000002 L 680.0200000000001 587.1000000000001 C 687.1143742151681 582.094864180511 694.1745383328745 577.0414133767142 701.2000000000006 571.9400000000003 L 705.69 568.6900000000002 L 706.82 567.8600000000001 C 713.1700000000001 563.2600000000001 719.62 558.8200000000002 726.1 554.4200000000001 C 731.27 550.9100000000001 736.34 547.32 741.3000000000001 543.5200000000001 C 745.9900000000001 539.9600000000002 750.8000000000001 536.6100000000001 755.6300000000001 533.2500000000001 Q 765.4800000000001 526.4000000000001 775.19 519.3800000000001 Q 783.7900000000001 513.1200000000001 792.5 507.0000000000001 Q 801.3 500.8100000000001 810 494.5000000000001 Q 818.7 488.1900000000001 827.5 482.0000000000001 Q 839.68 473.4000000000001 851.73 464.6400000000001 L 864.13 455.6900000000001 L 867.5 453.2500000000001 L 868.62 452.4500000000001 L 875.4 447.5400000000001 C 887.2761246438125 438.92344243144333 899.226571846934 430.4097905048683 911.2499999999976 422.00000000000193 L 912.31 421.25 L 932.3499999999999 407.12 L 934.6299999999999 405.52 L 937.7799999999999 403.29999999999995 L 938.7299999999999 402.63999999999993 C 939.8951002901644 401.85731243308635 940.9892943600468 400.97392639501624 942 400" stroke-linecap="round" />
</g>
		<g transform="matrix(0.1701081249093005 0 0 0.1701081249093005 -2.38413965602264 20.24317087419999)"  >
<path style="stroke: none; stroke-width: 1; stroke-dasharray: none; stroke-linecap: butt; stroke-dashoffset: 0; stroke-linejoin: miter; stroke-miterlimit: 4; fill: rgb(255,255,255); fill-rule: nonzero; opacity: 1;"  paint-order="stroke"  transform=" translate(-1026.5488754528055, -1141.5671102771155)" d="M 1372 459 C 1392.35 459 1392.35 459 1400.19 459.69 L 1401.66 459.81 C 1421.3575917908904 461.5342362978607 1440.8698476778143 464.95356509011657 1459.9799999999998 470.03 C 1478.5220320469446 475.13763811597556 1496.5942876839977 481.818551575286 1513.9999999999998 489.9999999999999 C 1531.78 498.44 1549.01 508.14 1565.07 519.54 C 1573.9492626312008 525.8940948757414 1582.50966605724 532.6823446100743 1590.72 539.8800000000001 Q 1592.3600000000001 541.32 1594.04 542.74 C 1604.18 551.39 1614.1399999999999 560.49 1622.8 570.62 Q 1624.47 572.53 1626.1599999999999 574.42 C 1638.4278582559891 588.1072824074278 1649.4859308189439 602.8324192756772 1659.2099999999998 618.43 C 1670.11 636.03 1679.7499999999998 654.15 1687.4199999999998 673.38 C 1694.7350312333676 691.7659508376292 1700.4593500749295 710.7455304917384 1704.5299999999997 730.1099999999999 C 1705.8757676290033 736.7770317940951 1707.0993061713148 743.4681540132206 1708.1999999999998 750.1799999999997 C 1709.0061224419187 754.9248809633076 1709.6631125907143 759.6938957489799 1710.1699999999998 764.4799999999999 C 1711.37 775.28 1711.1 786.15 1710.9999999999998 797 L 1709.9999999999998 798 L 1595.9999999999998 798 L 1594.9999999999998 797 L 1594.9499999999998 796.09 C 1594.08 779.99 1592.9499999999998 764.07 1589.3199999999997 748.32 C 1586.2099999999998 735.2800000000001 1582.3099999999997 722.33 1576.9999999999998 710 C 1572.1699999999998 698.87 1566.8999999999999 687.97 1560.2599999999998 677.8 C 1553.6599999999999 667.8499999999999 1546.5199999999998 658.2199999999999 1538.3399999999997 649.5 L 1534.7799999999997 645.8 L 1532.3299999999997 643.24 C 1524.8699999999997 635.34 1517.1299999999997 628.07 1508.3999999999996 621.57 C 1500.8817052357238 616.0552543933989 1493.0484269405947 610.9833235620687 1484.9399999999996 606.3800000000001 C 1473.5099999999995 599.75 1461.6399999999996 594.45 1449.2399999999996 589.87 C 1437.537082575558 585.642720746963 1425.5156296349744 582.3556308330287 1413.2899999999995 580.04 C 1399.5399999999995 577.64 1386.0399999999995 577.04 1371.9999999999995 576 z M 951 603 C 953.63 603.32 956.16 603.82 958.72 604.53 C 962.6043850267715 605.7238414762061 966.3838305142647 607.2356196712034 970.02 609.05 C 977.26 613.01 983.75 618.25 990.3199999999999 623.2299999999999 Q 996.6299999999999 627.9699999999999 1003.06 632.56 L 1005.3 634.17 L 1008.65 636.5799999999999 L 1016.53 642.28 Q 1031.7 653.25 1047 664 C 1059.1052837609263 672.5196478238335 1071.1489306615842 681.1265385787459 1083.1299999999983 689.8199999999988 L 1092.19 696.38 C 1097.6014082942675 700.2886646022334 1103.038190031144 704.1620799169181 1108.5 708.0000000000001 Q 1117.26 714.15 1125.94 720.44 L 1127.0700000000002 721.25 Q 1131.6000000000001 724.55 1136.14 727.82 C 1146.669444455567 735.4617576310386 1157.2530448597813 743.0286152428708 1167.8900000000008 750.5200000000008 L 1179.5600000000002 758.7500000000001 L 1182.7600000000002 761.0000000000001 L 1183.8200000000002 761.7500000000001 Q 1186.9900000000002 764.0000000000001 1190.16 766.2200000000001 C 1198.1902641914623 771.8633476210023 1206.1804645294112 777.5634905404401 1214.1299999999999 783.3199999999998 C 1219.5588727425645 787.2521413487235 1225.0156777625082 791.1455733971621 1230.499999999999 794.9999999999995 Q 1239.26 801.15 1247.94 807.44 L 1249.0700000000002 808.25 Q 1253.6000000000001 811.55 1258.14 814.82 L 1266.0600000000002 820.5600000000001 L 1267.1900000000003 821.3800000000001 Q 1275.8300000000004 827.6100000000001 1284.5500000000002 833.7400000000001 Q 1292.8300000000002 839.5600000000002 1301.0000000000002 845.5000000000001 C 1307.1757004710576 849.9765267271507 1313.382517808028 854.4099676821303 1319.62 858.8000000000005 L 1327.0000000000002 864.0000000000001 L 1335.4400000000003 869.9400000000002 L 1336.5000000000002 870.6800000000002 Q 1345.2500000000002 876.8800000000002 1353.9300000000003 883.1800000000002 Q 1362.9000000000003 889.6800000000002 1372.0000000000002 896.0000000000002 Q 1382.2200000000003 903.1200000000002 1392.3000000000002 910.4400000000003 Q 1400.3600000000001 916.2800000000003 1408.5000000000002 922.0000000000002 Q 1417.8700000000001 928.6000000000003 1427.1300000000003 935.3200000000003 Q 1435.8000000000004 941.6000000000003 1444.5500000000004 947.7400000000002 C 1449.9989070443585 951.5760914293427 1455.419058516394 955.4528664367091 1460.8100000000002 959.3700000000003 Q 1470.3400000000004 966.2700000000002 1480.0000000000005 973.0000000000002 C 1488.652074424505 979.050612396501 1497.245804539098 985.184228925148 1505.7800000000002 991.4000000000001 L 1515.8800000000003 998.6900000000002 L 1519.2200000000003 1001.1000000000001 L 1529.7800000000002 1008.7200000000001 L 1534.7900000000002 1012.3200000000002 L 1540.5000000000002 1016.4200000000002 L 1541.4900000000002 1017.1200000000002 L 1543.1900000000003 1018.3500000000003 C 1544.1900000000003 1019.1500000000002 1545.0900000000004 1020.0900000000003 1546.0000000000002 1021.0000000000002 L 1546.0000000000002 1823.0000000000002 L 1544.0000000000002 1824.0000000000002 C 1542.4500000000003 1824.1300000000003 1542.4500000000003 1824.1300000000003 1540.6000000000001 1824.1300000000003 L 1485.2 1824.1300000000003 C 1462.1299981638413 1824.1395541010065 1439.0599924613427 1824.132887432695 1415.989999999995 1824.1100000000035 L 1300.02 1824.1100000000004 L 1242.2 1824.1000000000004 L 1157.65 1824.1000000000004 L 1074.0600000000002 1824.0800000000004 L 1032.0900000000001 1824.0800000000004 L 987.1300000000001 1824.0700000000004 L 985.7600000000001 1824.0700000000004 L 857.3700000000001 1824.0600000000004 L 796.5300000000001 1824.0600000000004 L 687.69 1824.0400000000004 L 683.85 1824.0400000000004 L 453.22 1824.0200000000004 L 452.12 1824.0200000000004 L 343 1824 L 342 1823 L 342 1021 C 356.81 1009.6 356.81 1009.6 362.22 1005.86 L 367.55 1002.13 L 368.66 1001.35 C 372.36124082232465 998.7397348706679 376.04136060618407 996.0996489387688 379.6999999999999 993.4300000000002 C 386.4197459468983 988.5543308973379 393.1867323699844 983.7441036025036 400.0000000000001 978.9999999999998 Q 412.52 970.24 424.9 961.25 Q 430.07 957.51 435.25 953.81 L 436.11 953.2099999999999 L 439.49 950.79 L 445.38 946.5899999999999 Q 452.68 941.3399999999999 460.03 936.16 L 461.07 935.43 L 463.18 933.9399999999999 Q 473.21 926.88 483.13 919.68 Q 491.8 913.4 500.55 907.26 C 504.8968632515509 904.2144786958856 509.2170282169413 901.1310276210506 513.5099999999998 898.01 L 518 894.75 C 524.2695597117522 890.2250550349662 530.613766197019 885.8044466274708 537.03 881.49 C 542.5681030247238 877.7393475167441 547.971496539731 873.7935360795507 553.23 869.66 C 557.2814576443469 866.5309708098837 561.437146384779 863.5392751436177 565.69 860.69 Q 574.37 854.79 582.87 848.6199999999999 L 584.01 847.7999999999998 L 590.87 842.8199999999998 C 602.6210771020042 834.2784157228821 614.454970375588 825.8513503156648 626.3700000000007 817.5399999999989 C 630.8115904359736 814.4384412470096 635.2449393909164 811.3250969433126 639.6700000000011 808.1999999999988 Q 648.3399999999999 802.0599999999998 656.93 795.8099999999998 C 662.9133950488458 791.4839397768462 668.9369901275653 787.2137542229779 674.9999999999999 782.9999999999998 Q 684.62 776.3 694.13 769.44 L 695.24 768.6300000000001 L 711.87 756.5600000000001 L 712.99 755.7600000000001 C 719.37 751.1400000000001 725.8100000000001 746.6200000000001 732.26 742.1200000000001 C 740.21 736.5800000000002 748.0699999999999 730.9200000000001 755.91 725.2300000000001 Q 760.9399999999999 721.6000000000001 766 718.0000000000001 Q 771.65 713.9900000000001 777.27 709.9100000000001 L 778.39 709.1100000000001 L 780.66 707.4600000000002 Q 790.03 700.6600000000002 799.5 694.0000000000001 Q 808.26 687.8500000000001 816.94 681.5600000000001 L 818.07 680.7500000000001 L 826 675 L 835.06 668.44 L 836.1899999999999 667.62 Q 844.31 661.76 852.4999999999999 656 C 865.4802864057812 646.8582142493711 878.347921509896 637.5575142647904 891.1000000000005 628.0999999999992 Q 896.5999999999999 624.0600000000001 902.04 619.9200000000001 C 907.37 615.8600000000001 912.67 611.96 918.61 608.85 C 921.7182602972507 607.2747418732763 924.8910317517185 605.8301466684555 928.1199999999999 604.52 Q 929.48 604 930.87 603.56 C 937.4 602.3 944.39 602.5 951 603" stroke-linecap="round" />
</g>
		<g transform="matrix(0.1701081249093005 0 0 0.1701081249093005 -16.426374072670797 32.46375298835535)"  >
<path style="stroke: none; stroke-width: 1; stroke-dasharray: none; stroke-linecap: butt; stroke-dashoffset: 0; stroke-linejoin: miter; stroke-miterlimit: 4; fill: rgb(0,0,0); fill-rule: nonzero; opacity: 1;"  paint-order="stroke"  transform=" translate(-944, -1213.4071950506745)" d="M 942.75 601.69 L 943.93 601.69 C 947.79 601.73 951.5999999999999 601.85 955.41 602.46 C 958.37 603.0600000000001 961.18 603.94 964 605 L 965.36 605.5 C 968.4173922993065 606.713208731217 971.3733895380511 608.1678001326355 974.2 609.85 C 980.1600000000001 613.57 985.71 617.99 991.3100000000001 622.22 Q 997.6300000000001 626.97 1004.0600000000001 631.5600000000001 L 1006.3000000000001 633.1700000000001 L 1009.6500000000001 635.58 L 1017.5300000000001 641.2800000000001 Q 1032.7 652.25 1048 663 C 1062.778673446941 673.3909551006487 1077.4659052652498 683.9113599164862 1092.0599999999988 694.5599999999986 L 1093.19 695.38 C 1098.6014082942675 699.2886646022334 1104.038190031144 703.1620799169181 1109.5 707.0000000000001 Q 1118.26 713.15 1126.94 719.44 L 1128.0700000000002 720.25 Q 1132.6000000000001 723.55 1137.14 726.82 Q 1152.92 738.2800000000001 1168.89 749.5200000000001 L 1180.5600000000002 757.7500000000001 L 1183.7600000000002 760.0000000000001 L 1184.8200000000002 760.7500000000001 Q 1187.9900000000002 763.0000000000001 1191.16 765.2200000000001 C 1199.1902641914623 770.8633476210023 1207.1804645294112 776.5634905404401 1215.1299999999999 782.3199999999998 Q 1223.2800000000002 788.2200000000001 1231.5 794.0000000000001 Q 1240.26 800.1500000000001 1248.94 806.4400000000002 L 1250.0700000000002 807.2500000000001 L 1267.0700000000002 819.5600000000001 L 1268.19 820.3800000000001 Q 1276.8300000000002 826.6100000000001 1285.55 832.7400000000001 Q 1293.83 838.5600000000002 1302 844.5000000000001 C 1310.6060587982474 850.7514052704074 1319.2731411794284 856.9183677339399 1327.9999999999998 862.9999999999999 L 1336.44 868.9400000000002 L 1337.5 869.6800000000002 Q 1346.25 875.8800000000002 1354.93 882.1800000000002 Q 1363.9 888.6800000000002 1373 895.0000000000002 Q 1383.22 902.1200000000002 1393.3 909.4400000000003 Q 1401.36 915.2900000000003 1409.5 921.0000000000002 Q 1418.87 927.6000000000003 1428.13 934.3200000000003 C 1433.9067888714385 938.5017467467117 1439.7136059920574 942.6418540164068 1445.5500000000009 946.7400000000008 Q 1453.7300000000002 952.5000000000002 1461.8100000000002 958.3800000000002 Q 1471.3400000000001 965.2800000000002 1481.0000000000002 972.0000000000002 Q 1493.9800000000002 981.0700000000003 1506.7800000000002 990.4000000000002 L 1516.88 997.6900000000002 L 1520.22 1000.1000000000001 C 1525.4013661409083 1003.8519666557773 1530.5913799482241 1007.591976605559 1535.7899999999988 1011.3200000000004 L 1538.19 1013.0400000000002 L 1541.5 1015.4200000000002 L 1542.49 1016.1200000000002 L 1543.41 1016.7900000000002 L 1544.2 1017.3500000000001 C 1545.2 1018.1500000000001 1546.1000000000001 1019.0900000000001 1547 1020.0000000000001 L 1547 1824 L 1545 1825 C 1543.45 1825.12 1543.45 1825.12 1541.59 1825.12 L 1486.1 1825.12 C 1462.9900021797675 1825.1341949859232 1439.879997820231 1825.1341949859232 1416.7699999999986 1825.12 L 1379.1399999999999 1825.12 L 1321.9999999999998 1825.11 L 1300.6099999999997 1825.11 L 1242.6999999999996 1825.09 L 1072.9299999999996 1825.09 L 1032.2299999999996 1825.08 L 987.1999999999996 1825.07 L 985.8299999999996 1825.07 L 857.2299999999996 1825.06 L 796.2799999999995 1825.06 L 687.2699999999995 1825.04 L 683.4199999999995 1825.04 L 452.3999999999995 1825.02 L 451.2999999999995 1825.02 L 342 1825 L 341 1824 L 341 1020 C 355.81 1008.6 355.81 1008.6 361.22 1004.86 L 366.55 1001.13 C 370.6371926144906 998.2822964240142 374.68752870644954 995.3820557655745 378.7 992.43 Q 388.78 985.12 399 978 Q 411.52 969.24 423.9 960.25 Q 429.07 956.51 434.25 952.81 L 435.11 952.1999999999999 L 438.49 949.79 L 444.38 945.5899999999999 Q 451.68 940.3399999999999 459.03 935.16 L 460.07 934.43 L 462.18 932.9399999999999 Q 472.21 925.88 482.13 918.68 C 487.90656548293043 914.4979423164434 493.7133848560362 910.3578334407848 499.550000000001 906.2599999999994 Q 505.51 902.08 511.40000000000003 897.8199999999999 L 512.51 897.01 L 517 893.75 C 523.2700868225695 889.2257983387585 529.6142809474766 884.805198543894 536.0300000000002 880.4899999999998 C 541.5685870192215 876.7400356261563 546.9720046596478 872.7942065714499 552.23 868.66 C 556.2814576443469 865.5309708098837 560.437146384779 862.5392751436177 564.69 859.69 Q 573.37 853.79 581.87 847.63 L 583.01 846.8 L 589.87 841.8199999999999 C 601.6215533558657 833.2790776944931 613.4554401859857 824.8520168757484 625.3700000000002 816.5399999999997 C 629.8115904359736 813.4384412470097 634.2449393909164 810.3250969433127 638.6700000000011 807.1999999999989 Q 647.3399999999999 801.0699999999999 655.93 794.81 Q 664.91 788.3199999999999 674 782 Q 683.62 775.3 693.13 768.44 L 694.24 767.6300000000001 L 710.87 755.5600000000001 L 711.99 754.7600000000001 Q 721.57 747.8500000000001 731.26 741.1200000000001 C 739.21 735.5800000000002 747.0699999999999 729.9200000000001 754.91 724.2300000000001 Q 759.9399999999999 720.5900000000001 765 717.0000000000001 Q 770.65 712.9900000000001 776.27 708.9100000000001 L 777.39 708.1100000000001 L 779.66 706.4600000000002 Q 789.03 699.6600000000002 798.5 693.0000000000001 Q 807.26 686.8500000000001 815.94 680.5600000000001 L 817.07 679.7500000000001 L 825 674 L 834.06 667.44 L 835.1899999999999 666.62 Q 843.31 660.76 851.4999999999999 655 C 864.4799956934284 645.8578068104416 877.3476258270099 636.5571104185519 890.0999999999998 627.0999999999997 Q 895.5999999999999 623.0600000000001 901.04 618.9200000000001 C 906.37 614.8600000000001 911.67 610.95 917.63 607.85 L 919.43 606.94 L 921.0799999999999 606.1 C 923.5871003248775 604.889319263673 926.1891281670199 603.8859666253147 928.8599999999999 603.1 C 933.4799999999999 601.87 937.9899999999999 601.64 942.7499999999999 601.69 M 920.3899999999999 660.4300000000001 Q 916.1399999999999 661.5300000000001 911.9999999999999 663.0000000000001 L 910.3299999999999 663.5700000000002 C 906.3342642359115 664.9638419068641 902.4554252500142 666.6725373566861 898.7299999999999 668.6800000000002 C 889.8799999999999 673.6800000000002 881.8499999999999 680.2000000000002 873.7099999999999 686.2500000000002 Q 867.3499999999999 690.9500000000003 860.9399999999999 695.5600000000002 L 858.6999999999999 697.1700000000002 L 854.2299999999999 700.3900000000002 L 844.1299999999999 707.6900000000002 L 838.4999999999999 711.7500000000001 L 836.2499999999999 713.3800000000001 L 830.6299999999999 717.44 L 828.3699999999999 719.0600000000001 L 822.7599999999999 723.12 L 811.3599999999999 731.36 C 800.9503702989566 738.9154507085013 790.4934983362142 746.4055977599147 779.9900000000002 753.8300000000003 L 778.9399999999999 754.5600000000001 L 777.89 755.3100000000001 Q 767.93 762.3100000000001 758.06 769.44 L 756.93 770.2600000000001 L 746.78 777.6100000000001 Q 733.35 787.3700000000001 719.73 796.8800000000001 C 711.5061111754678 802.6408641208062 703.3357606821263 808.4777811807166 695.2199999999991 814.3900000000006 L 684 822.5 L 679.5 825.75 L 678.38 826.55 L 671.6 831.4599999999999 Q 659.58 840.1899999999999 647.45 848.7399999999999 C 641.9612423705515 852.6042609430983 636.4977924136748 856.5043441948042 631.0600000000003 860.4399999999997 L 629.9300000000001 861.2499999999999 L 611.8100000000001 874.3799999999999 Q 603.21 880.5899999999999 594.5100000000001 886.6799999999998 C 588.7882036964094 890.714673610022 583.117748731325 894.8216697987251 577.4999999999998 899.0000000000001 C 571.1934247113687 903.6826028801488 564.8262196620942 908.2829918686298 558.3999999999999 912.8000000000001 Q 550.06 918.65 541.81 924.63 L 537.27 927.91 L 536.17 928.7099999999999 C 532.5102212666646 931.3542339463313 528.8401936253463 933.9842537546878 525.1600000000001 936.6 C 520.1834760156537 940.1330783182626 515.2333386867454 943.7031773615361 510.30999999999915 947.3100000000006 L 509.17999999999995 948.14 C 503.59452876802777 952.1782502091639 497.94378227520326 956.1254383197859 492.22999999999996 959.9799999999999 C 485.24999999999994 964.71 478.33 969.4 471.99999999999994 975 L 470.86999999999995 975.98 C 468.0389136535577 978.441225664743 465.4073414783696 981.1229548699538 463 984 C 459.26212715061666 988.9601753326924 455.94715884727043 994.2253217600052 453.09 999.74 C 450.77605668275356 1004.3391917680597 448.8655578530667 1009.1304953129135 447.38 1014.0600000000001 C 445.9046845433581 1019.079876006993 444.69302831285336 1024.1735052294455 443.75 1029.3200000000002 C 442.79 1035.0600000000002 442.86 1040.7500000000002 442.88 1046.5400000000002 L 442.88 1069.2000000000003 C 442.8637883329009 1082.3233283266377 442.8637883328991 1095.4466716733646 442.8799999999982 1108.570000000002 L 442.88 1116.2200000000003 C 442.8728021656457 1146.8666681145921 442.87946883298406 1177.5133379174297 442.8999999999895 1208.1600000000437 L 442.9 1256.3100000000004 L 442.92999999999995 1352.5600000000004 L 442.92999999999995 1354.1100000000004 L 442.93999999999994 1425.6100000000004 L 442.93999999999994 1430.2400000000005 L 442.9599999999999 1522.2100000000005 L 442.9599999999999 1525.1200000000006 L 442.9799999999999 1656.3200000000006 L 442.9799999999999 1657.5600000000006 L 443 1719 L 444 1720 L 1444 1720 L 1445 1719 L 1445.06 1656.22 L 1445.06 1654.98 Q 1445.1299999999999 1589.13 1445.1599999999999 1523.28 L 1445.1699999999998 1520.35 L 1445.1999999999998 1458.8899999999999 L 1445.2199999999998 1428.02 L 1445.2199999999998 1423.37 Q 1445.2299999999998 1387.53 1445.2799999999997 1351.6999999999998 L 1445.2799999999997 1350.1499999999999 L 1445.3699999999997 1253.79 L 1445.3699999999997 1219.97 L 1445.3799999999997 1206.96 L 1445.3799999999997 1205.52 Q 1445.3799999999997 1182.62 1445.4199999999996 1159.72 Q 1445.4599999999996 1136.6200000000001 1445.4499999999996 1113.53 L 1445.4499999999996 1105.87 Q 1445.4499999999996 1095.9699999999998 1445.4799999999996 1086.1 Q 1445.5099999999995 1076.35 1445.4799999999996 1066.6 L 1445.4999999999995 1056.1999999999998 C 1445.5999999999995 1035.1599999999999 1445.5999999999995 1035.1599999999999 1444.4099999999996 1027.84 C 1443.1285193562967 1021.0815099018869 1441.2957276374727 1014.4393121763677 1438.9299999999996 1007.9799999999999 C 1437.0610004473917 1003.0940647567847 1434.8037879339702 998.3656225434839 1432.1799999999996 993.8399999999999 C 1429.6896819443327 989.653845135287 1426.8672806904774 985.6743931304435 1423.7399999999996 981.9399999999999 C 1420.63509238611 978.422432928544 1417.250721649811 975.1617990669912 1413.6199999999997 972.1899999999999 C 1408.1399999999996 967.88 1402.2899999999997 964.04 1396.5199999999998 960.13 Q 1388.0899999999997 954.43 1379.8799999999997 948.43 L 1375.3999999999996 945.18 L 1374.2899999999997 944.38 Q 1368.4199999999998 940.15 1362.4999999999998 936 Q 1353.1299999999999 929.4 1343.8699999999997 922.68 Q 1335.7199999999996 916.78 1327.4999999999998 911 C 1321.6591776792043 906.8920066766302 1315.845716012494 902.7452484694126 1310.0599999999997 898.56 L 1308.9299999999996 897.75 L 1291.9299999999996 885.44 L 1290.8099999999997 884.62 Q 1282.6899999999998 878.76 1274.4999999999998 873 C 1266.3829425662088 867.2699170386132 1258.3060781876932 861.4831087178934 1250.2700000000002 855.6399999999999 L 1243.4999999999998 850.74 L 1242.3699999999997 849.94 L 1238.9999999999998 847.5 L 1226.5999999999997 838.54 Q 1214.5899999999997 829.81 1202.4499999999996 821.26 C 1198.1033987519831 818.2141082113841 1193.7832369985094 815.130659429005 1189.4899999999993 812.0099999999999 L 1185.0099999999995 808.75 C 1178.7366061385892 804.2257066430853 1172.389077618462 799.805106423711 1165.9699999999993 795.4899999999997 C 1160.431412980778 791.7400356261563 1155.0279953403517 787.7942065714499 1149.7699999999995 783.66 C 1145.7176458266201 780.5321731238322 1141.5619978944226 777.5405068355648 1137.3099999999993 774.6899999999998 C 1131.522427375719 770.7574697007798 1125.7950962558284 766.73700326854 1120.1299999999992 762.6299999999999 L 1118.9899999999993 761.81 L 1113.2999999999993 757.67 Q 1107.5299999999993 753.4699999999999 1101.7499999999993 749.31 L 1100.6099999999992 748.4899999999999 Q 1092.8999999999992 742.93 1085.1699999999992 737.3999999999999 Q 1076.9699999999991 731.5599999999998 1068.8299999999992 725.6599999999999 C 1063.8985883192568 722.0901107623225 1058.9552272284984 718.536757476585 1053.9999999999989 714.9999999999991 C 1041.55326191705 706.1442884009076 1029.1860991124404 697.1772620007999 1016.9000000000003 688.1000000000004 C 1013.2463766701442 685.4239687675567 1009.6228164280068 682.7071319714738 1006.03 679.9499999999999 C 1000.5799999999999 675.7700000000001 995.1 671.82 989.03 668.6 C 984.815825519612 666.3433261718014 980.4123870137462 664.4594843186081 975.87 662.97 C 971.9562686310518 661.815686046721 967.9961722763775 660.8248279023753 964.0000000000001 660 L 962.91 659.74 C 961.1327400261273 659.3273967172072 959.3280717357329 659.0433285603859 957.51 658.89 Q 955.04 658.79 952.55 658.76 L 950.6899999999999 658.73 Q 947.7199999999999 658.69 944.7499999999999 658.69 L 943.7299999999999 658.69 C 927.8699999999999 658.6400000000001 927.8699999999999 658.6400000000001 920.3899999999999 660.4300000000001" stroke-linecap="round" />
</g>
		<g transform="matrix(0.1701081249093005 0 0 0.1701081249093005 0 -65.07746977121644)"  >
<path style="stroke: none; stroke-width: 1; stroke-dasharray: none; stroke-linecap: butt; stroke-dashoffset: 0; stroke-linejoin: miter; stroke-miterlimit: 4; fill: rgb(0,0,0); fill-rule: nonzero; opacity: 1;"  paint-order="stroke"  transform=" translate(-1040.5643121481064, -640)" d="M 943 398 Q 945.55 398.87 948 400 C 949.9476657522733 401.19213056738295 951.8459093186057 402.4631864527479 953.69 403.81 L 955.37 404.99 C 960.97 408.93 966.51 412.97 972.07 416.99 Q 979.7700000000001 422.57 987.57 428.06 L 988.62 428.81 L 1004.44 439.94 L 1005.49 440.68 Q 1014.36 446.95 1023.13 453.32 C 1028.5588727425645 457.25214134872334 1034.0156777625084 461.1455733971615 1039.4999999999995 464.9999999999989 Q 1048.26 471.15 1056.94 477.44 L 1058.0700000000002 478.26 L 1068.2200000000003 485.61 C 1078.8608187550017 493.3281524572982 1089.574634393601 500.94516201989904 1100.3600000000008 508.4600000000004 Q 1109.1600000000003 514.6 1117.8900000000003 520.8100000000001 L 1125.2000000000003 525.96 L 1129.4400000000003 528.94 L 1130.5000000000002 529.6800000000001 C 1134.8615562040336 532.7517749751441 1139.198362832374 535.8585419064377 1143.5100000000002 539 L 1148.0000000000002 542.2500000000001 C 1154.2000000000003 546.7500000000001 1160.4900000000002 551.0900000000001 1166.8300000000002 555.3800000000001 Q 1175.17 561.0200000000001 1183.19 567.1300000000001 C 1188.3393148023342 571.057554852453 1193.5911340809778 574.848868198369 1198.9400000000003 578.5000000000002 L 1199.94 579.1800000000001 L 1201.94 580.5400000000001 L 1202.94 581.2300000000001 L 1203.94 581.9100000000001 C 1208.1332027527424 584.7784413142004 1212.3000442018738 587.6852299091146 1216.4400000000003 590.6300000000003 Q 1225.3300000000002 596.9200000000001 1234.14 603.3300000000002 Q 1242.2700000000002 609.2100000000002 1250.5 615.0000000000001 Q 1259.87 621.6000000000001 1269.14 628.3200000000002 Q 1276.72 633.8200000000002 1284.39 639.2000000000002 Q 1294.65 646.4100000000002 1304.71 653.9000000000002 C 1310.2746997320817 658.0248613182243 1315.8918239564832 662.0785248534603 1321.56 666.0600000000002 Q 1330.29 672.1800000000002 1338.94 678.4400000000002 L 1340.0700000000002 679.2600000000002 L 1350.2200000000003 686.6100000000002 Q 1363.0200000000002 695.9300000000003 1376.0000000000002 705.0000000000002 C 1385.0400000000002 711.3000000000002 1393.9700000000003 717.7200000000003 1402.8900000000003 724.2000000000003 L 1414.1900000000003 732.3800000000002 Q 1422.8300000000004 738.6100000000002 1431.5500000000002 744.7400000000002 Q 1439.8300000000002 750.5600000000003 1448.0000000000002 756.5000000000002 C 1454.1757004710576 760.9765267271508 1460.382517808028 765.4099676821304 1466.62 769.8000000000006 L 1474.0000000000002 775.0000000000002 Q 1488.3200000000002 785.0400000000002 1502.4800000000002 795.2900000000002 Q 1509.6400000000003 800.4700000000001 1516.8400000000001 805.5900000000001 Q 1522.0200000000002 809.2900000000002 1527.16 813.0200000000001 Q 1539.63 822.07 1552.26 830.8800000000001 Q 1561.86 837.5700000000002 1571.31 844.44 Q 1579.36 850.2800000000001 1587.5 856 Q 1596.87 862.6 1606.13 869.32 Q 1614.2800000000002 875.22 1622.5 881 Q 1631.87 887.6 1641.13 894.32 Q 1649.2800000000002 900.22 1657.5 906 Q 1666.87 912.6 1676.13 919.32 Q 1684.2800000000002 925.22 1692.5 931 Q 1701.87 937.6 1711.13 944.32 Q 1719.3700000000001 950.2800000000001 1727.69 956.12 Q 1739.45 964.42 1751 973 C 1750.4556668196044 974.7130336066541 1749.7872301843026 976.3841251949087 1749 978 C 1747.38 980.8 1745.5 983.45 1743.69 986.13 L 1742.0800000000002 988.51 L 1735.39 998.37 Q 1725.3700000000001 1013.12 1715.1100000000001 1027.71 C 1712.1013736189673 1031.9777359690645 1709.1246241359574 1036.2678553247572 1706.1799999999998 1040.5800000000004 L 1704.76 1042.6799999999998 C 1700.7531741763123 1048.6309436142817 1696.4960235540423 1054.4094584087738 1692 1060 C 1689.972191458927 1059.097561997384 1688.0251225095587 1058.0236631438663 1686.18 1056.79 L 1684.3 1055.42 L 1683.26 1054.66 L 1677.46 1050.44 L 1670 1045 L 1661.06 1038.5 L 1659.95 1037.7 C 1653.7361592268387 1033.2178838165803 1647.4520451031922 1028.8340057939831 1641.1 1024.5499999999997 C 1635.4768028704862 1020.7338799578947 1629.9323082273736 1016.803056636049 1624.47 1012.76 Q 1617.1100000000001 1007.3199999999999 1609.6200000000001 1002.06 L 1608.5500000000002 1001.31 L 1603.15 997.51 L 1592.5 990 L 1588.25 987 L 1587.18 986.25 Q 1584.01 984 1580.8400000000001 981.78 C 1572.8097358085379 976.1366523789978 1564.8195354705888 970.4365094595598 1556.8700000000001 964.6800000000001 C 1551.4411272574353 960.7478586512764 1545.9843222374907 956.8544266028373 1540.4999999999993 952.9999999999997 Q 1531.13 946.4 1521.87 939.68 C 1516.093211128562 935.4982532532888 1510.286394007943 931.3581459835939 1504.4499999999998 927.2600000000001 C 1500.4775985467452 924.4782521902913 1496.5274726208665 921.6648291679778 1492.5999999999997 918.8199999999997 L 1491.49 918.01 L 1489.25 916.38 C 1482.6792702975108 911.6061022913076 1476.0317337148322 906.9388248511121 1469.3099999999997 902.38 C 1462.9686827861208 898.0768289249603 1456.7173373287426 893.64254121386 1450.56 889.08 Q 1443.6799999999998 884.0300000000001 1436.69 879.12 C 1430.6994563855997 874.9129965514171 1424.7393016906767 870.6628862404399 1418.81 866.3699999999998 L 1414.27 863.09 L 1413.17 862.2900000000001 Q 1408.0700000000002 858.6 1402.94 854.94 L 1402.0900000000001 854.34 Q 1397.0500000000002 850.74 1391.9900000000002 847.1700000000001 L 1390.9400000000003 846.44 L 1387.7500000000002 844.19 L 1386.6800000000003 843.4300000000001 Q 1377.7300000000002 837.11 1368.8700000000003 830.6800000000001 Q 1360.1900000000003 824.4000000000001 1351.4400000000003 818.2600000000001 Q 1343.9100000000003 812.9600000000002 1336.4800000000002 807.5600000000001 Q 1325.5800000000002 799.6600000000001 1314.5000000000002 792.0000000000001 Q 1301.1500000000003 782.7400000000001 1288.0000000000002 773.1800000000001 Q 1282.6000000000001 769.2700000000001 1277.1600000000003 765.4000000000001 C 1272.1829714886194 761.8676268091601 1267.232828871526 758.2975239519836 1262.3100000000004 754.69 L 1261.1700000000003 753.86 C 1254.9200000000003 749.33 1248.5700000000004 744.96 1242.1700000000003 740.62 C 1236.34229862652 736.6609634904936 1230.6267206009586 732.5393447976152 1225.0300000000002 728.26 C 1219.6331517457852 724.1833342532138 1214.120901693005 720.2617334897116 1208.5 716.5 C 1202.547101979534 712.5033151307664 1196.7113174775343 708.334897629338 1191 704 C 1185.3280526108508 699.6909264963136 1179.5357517230584 695.5426119860007 1173.6299999999999 691.5599999999997 Q 1164.18 685.18 1154.93 678.5 L 1153.8200000000002 677.69 L 1148.2400000000002 673.6300000000001 L 1136.9400000000003 665.4300000000001 L 1135.8100000000002 664.6200000000001 Q 1127.17 658.3900000000001 1118.4500000000003 652.2600000000001 Q 1109.6100000000004 646.0300000000001 1100.8600000000004 639.6800000000001 Q 1092.7300000000002 633.7800000000001 1084.5000000000005 628.0000000000001 Q 1075.1300000000006 621.4000000000001 1065.8700000000003 614.6800000000001 Q 1057.2000000000003 608.4000000000001 1048.4500000000003 602.2600000000001 C 1043.0010929556422 598.4239085706577 1037.5809414836067 594.547133563291 1032.1900000000005 590.6299999999998 C 1025.8364599674815 586.0262508450335 1019.4395070293616 581.4827141828879 1012.9999999999993 576.9999999999994 C 1004.3479255754957 570.9493876034992 995.7541954609025 564.8157710748521 987.2200000000003 558.5999999999999 L 977.12 551.3100000000001 L 971.5600000000001 547.2900000000001 L 970.44 546.4900000000001 L 958.2600000000001 537.6800000000002 L 955.8900000000001 535.9600000000002 L 952.5900000000001 533.5800000000002 L 951.6200000000001 532.8800000000001 C 949.7750205955645 531.5460712580532 947.9012440865998 530.2524319600492 945.9999999999999 529 C 944.58 529.02 943.25 529.19 941.85 529.42 L 940 530 C 937.04 531.57 934.41 533.73 931.75 535.75 L 929.37 537.51 L 924.44 541.18 Q 919.3100000000001 544.9799999999999 914.11 548.6999999999999 L 908.5 552.7499999999999 L 906.25 554.3799999999999 L 905.13 555.1799999999998 L 900.63 558.4399999999998 L 898.38 560.0599999999998 L 892.75 564.1199999999998 L 882.6 571.4599999999998 C 874.5905552895455 577.2764690474579 866.5403567317111 583.0366111211381 858.4499999999999 588.7399999999998 Q 850.21 594.5299999999997 842.0600000000001 600.4399999999998 L 840.9300000000001 601.2599999999999 L 830.7800000000001 608.6099999999999 Q 817.3500000000001 618.3699999999999 803.7300000000001 627.8799999999999 Q 794.7500000000001 634.1399999999999 785.8700000000001 640.5599999999998 L 784.7600000000001 641.3699999999998 L 768.1300000000001 653.4399999999998 L 767.0100000000001 654.2399999999998 Q 757.4300000000001 661.1499999999997 747.7300000000001 667.8799999999998 Q 738.8100000000002 674.1099999999998 730.0000000000001 680.4999999999998 Q 720.5700000000002 687.3499999999998 711.0000000000001 693.9999999999998 Q 697.4700000000001 703.4599999999998 684.1100000000001 713.1999999999998 C 669.3563787995763 723.9146287115574 654.5057665550513 734.4950649100131 639.5599999999997 744.9399999999996 L 638.5000000000002 745.6799999999998 Q 632.5200000000002 749.8899999999999 626.6000000000003 754.1799999999998 L 625.4800000000002 754.9999999999999 L 621.0000000000002 758.2499999999999 C 614.7958366897468 762.7297381105901 608.518318855949 767.1069982889102 602.1700000000003 771.3799999999999 C 596.3422986265199 775.3390365095063 590.6267206009586 779.4606552023847 585.0300000000002 783.7399999999999 C 579.2346096432495 788.1018801674976 573.315517753089 792.2969323352846 567.2800000000002 796.3199999999999 C 561.7426683220309 800.0567233123004 556.3137649208596 803.9516613789882 551 807.9999999999999 C 545.3280526108507 812.3090735036862 539.5357517230586 816.4573880139991 533.63 820.44 Q 524.18 826.82 514.93 833.5 L 513.8199999999999 834.31 L 508.23999999999995 838.3699999999999 L 495.80999999999995 847.3799999999999 Q 487.16999999999996 853.6099999999999 478.44999999999993 859.7399999999999 Q 470.2099999999999 865.5299999999999 462.05999999999995 871.4399999999999 L 460.92999999999995 872.2499999999999 L 453 878 L 443.94 884.56 L 442.81 885.38 Q 434.17 891.62 425.44 897.74 Q 417.27 903.5 409.19 909.37 C 402.814270996913 913.993917388518 396.39734811521816 918.5607664004253 389.94 923.0699999999998 L 388.66 923.95 L 383.63000000000005 927.46 C 370.6716012604985 936.5248122307742 357.7944210260671 945.7051783621814 345.00000000000085 955 L 335.94 961.56 L 334.81 962.38 Q 326.17 968.61 317.45 974.74 Q 309.17 980.5600000000001 301 986.5 Q 291.77 993.19 282.45 999.74 C 278.47759854674547 1002.5217478097086 274.5274726208666 1005.3351708320224 270.59999999999974 1008.1800000000004 L 269.48999999999995 1008.99 L 267.24999999999994 1010.62 Q 256.88999999999993 1018.13 246.29999999999995 1025.32 C 240.4887095086208 1029.2672860002938 234.74129915163306 1033.307808826668 229.0599999999999 1037.4399999999998 C 220.8370677211064 1043.4347672710585 212.5600622539173 1049.3550096028061 204.23000000000013 1055.2000000000003 L 203.15999999999997 1055.9699999999998 Q 201.61999999999998 1057.0499999999997 199.99999999999997 1057.9999999999998 Q 197.53999999999996 1059.0999999999997 194.99999999999997 1059.9999999999998 C 189.11999999999998 1052.0899999999997 183.57999999999998 1043.9999999999998 178.14 1035.7699999999998 L 174.85999999999999 1030.8399999999997 L 158.61999999999998 1006.3799999999997 L 157.64999999999998 1004.9099999999996 C 150.9137555485944 994.8392462091174 144.02967690894866 984.8681666879647 137 975 C 137.5505463664042 973.61169982093 138.21968767658652 972.2734172005654 139 971 C 139.72 970.27 139.72 970.27 140.5 969.65 Q 141.38 969.04 142.28 968.4499999999999 L 143.27 967.7499999999999 L 145.39000000000001 966.3099999999998 Q 147.69000000000003 964.7599999999999 149.96 963.1699999999998 L 152.36 961.5099999999999 C 156.23562433777445 958.8270628855438 160.07595350244952 956.093495250966 163.87999999999988 953.31 C 170.42288157847844 948.5516561786992 177.00308507816663 943.8448439489325 183.62000000000037 939.1899999999997 L 192.05000000000004 933.2599999999999 L 199.44000000000003 928.0599999999998 L 200.50000000000003 927.3199999999998 Q 209.35000000000002 921.0499999999998 218.13000000000002 914.6799999999998 Q 226.8 908.3999999999999 235.55 902.2599999999999 Q 243.83 896.4399999999998 252 890.4999999999999 Q 263.89 881.8999999999999 275.9 873.4799999999999 L 282.25 868.9999999999999 L 283.31 868.2499999999999 L 286.5 865.9999999999999 L 298.16 857.7799999999999 C 306.1902641914624 852.1366523789975 314.18046452941155 846.4365094595597 322.1300000000005 840.6799999999997 Q 330.8 834.3999999999999 339.55 828.2599999999999 C 343.52240145325453 825.4782521902913 347.47252737913294 822.6648291679779 351.3999999999998 819.8199999999999 L 352.51000000000005 819.0099999999999 L 354.75000000000006 817.3799999999999 L 355.88000000000005 816.5599999999998 L 356.99000000000007 815.7499999999999 C 362.8833649305731 811.4888208874384 368.84411849288796 807.32162740148 374.87000000000006 803.2499999999999 C 380.53018581649985 799.4467445120434 386.08237720120803 795.4851809294408 391.52 791.3699999999999 C 395.66279518885824 788.2517398039652 399.8635292735534 785.2112084664717 404.12 782.25 Q 413.08000000000004 775.9699999999999 421.94000000000005 769.5599999999998 L 423.07000000000005 768.7499999999999 C 428.70409151422797 764.6815027808005 434.32744439999334 760.5981552496428 439.93999999999903 756.5000000000003 L 441.06000000000006 755.6899999999999 C 447.24000000000007 751.2099999999999 453.52000000000004 746.89 459.83000000000004 742.6199999999999 C 465.6315629818071 738.6770911986869 471.3237101867649 734.5755440035504 476.9000000000002 730.3199999999999 C 482.4721885913007 726.1130716766926 488.13347612498274 722.0254753773439 493.88000000000017 718.06 Q 503.61000000000007 711.3199999999999 513.1800000000001 704.38 C 519.2734149891272 699.9602701643918 525.4002578097693 695.5868110889389 531.5600000000006 691.2599999999996 C 537.0054975041276 687.4237762600696 542.4223147500026 683.5470018250219 547.81 679.6300000000001 Q 557.97 672.27 568.2700000000001 665.12 Q 577.8500000000001 658.43 587.3100000000001 651.5600000000001 Q 595.36 645.72 603.5000000000001 640.0000000000001 Q 612.3000000000001 633.8100000000001 621.0000000000001 627.5000000000001 Q 630.2300000000001 620.8100000000001 639.5500000000001 614.2600000000001 Q 647.83 608.44 656.0000000000001 602.5000000000001 C 662.2411963574416 597.9751684594937 668.5146902921616 593.4950537685993 674.8199999999988 589.0600000000012 L 676.9400000000002 587.5600000000001 L 677.9900000000001 586.83 L 679.0200000000001 586.1 C 686.1143742151681 581.0948641805109 693.1745383328745 576.0414133767141 700.2000000000006 570.9400000000002 L 704.69 567.69 L 705.82 566.86 C 712.1700000000001 562.26 718.62 557.82 725.1 553.42 C 730.27 549.91 735.34 546.3199999999999 740.3000000000001 542.52 C 744.9900000000001 538.96 749.8000000000001 535.61 754.6300000000001 532.25 Q 764.4800000000001 525.4 774.19 518.38 Q 782.7900000000001 512.12 791.5 506 Q 800.3 499.81 809 493.5 Q 817.7 487.19 826.5 481 Q 838.68 472.4 850.73 463.64 L 863.13 454.69 L 866.5 452.25 L 867.62 451.45 L 874.4 446.53999999999996 Q 889.0699999999999 435.9 903.9 425.47999999999996 L 913.4399999999999 418.74999999999994 L 926.54 409.48999999999995 Q 928.9 407.84999999999997 931.24 406.16999999999996 L 933.48 404.59 L 936.58 402.39 L 937.5 401.75 Q 940.23 399.83 943 398 M 1371 220 C 1405.65 220 1438.63 221.87 1472.53 227.77 C 1506.8 233.82000000000002 1540.3 243.11 1573 255 C 1598.77 264.45 1624.39 276.09 1648.17 289.82 Q 1651.46 291.73 1654.72 293.67 Q 1657.72 295.42 1660.74 297.09000000000003 C 1676.620343852429 305.8162494812857 1691.8052228545828 315.75228215288433 1706.1599999999999 326.81000000000006 Q 1709.52 329.4100000000001 1712.94 331.9200000000001 C 1726.5057159498413 341.85936355118645 1739.4997077721252 352.55637017980877 1751.8600000000004 363.96000000000026 Q 1754.42 366.2600000000001 1757.0600000000002 368.5000000000001 C 1760.7000000000003 371.6300000000001 1764.0600000000002 375.0200000000001 1767.42 378.4400000000001 C 1769.5464833635465 380.64135423154363 1771.807493115619 382.7086585691108 1774.19 384.6300000000001 C 1775.77 385.8900000000001 1777.19 387.17000000000013 1778.53 388.6900000000001 L 1781.04 391.6400000000001 C 1783.71 394.7500000000001 1786.58 397.6300000000001 1789.5 400.5000000000001 C 1793.5 404.4500000000001 1797.3 408.47000000000014 1800.93 412.7600000000001 Q 1802.49 414.5600000000001 1804.0900000000001 416.3600000000001 C 1811.556308017088 424.7917299522978 1818.6658824377666 433.5327365136203 1825.4 442.56000000000006 Q 1827.8000000000002 445.7600000000001 1830.27 448.8900000000001 C 1836.311139619677 456.6691729711196 1842.035799844987 464.6890349650852 1847.43 472.93 L 1849.96 476.7100000000001 C 1855.9058658610622 485.6379339142231 1861.5883141863112 494.73852163699564 1867 504 L 1867.88 505.5 C 1883.6200000000001 532.25 1897.3000000000002 560.05 1908.18 589.13 C 1920.28 621.66 1929.2 655.17 1935.48 689.29 C 1938.1874164072378 704.4456984928265 1940.3620882510695 719.6917491034944 1942 734.9999999999999 L 1942.2 736.87 C 1944.4 757.21 1944.23 777.57 1944 798 L 1943 799 L 1830 799 L 1829 798 L 1828.98 797.07 C 1828.4 767.6 1826.35 738.1500000000001 1820.64 709.1800000000001 C 1815.46 683.47 1808.7800000000002 658.1300000000001 1799.2700000000002 633.6500000000001 C 1789.3000000000002 608.2300000000001 1777.7400000000002 583.5300000000001 1763.5200000000002 560.1800000000001 C 1750.4679572247383 538.9358005506256 1735.6417370451652 518.8340954380229 1719.2000000000003 500.0899999999999 Q 1715.4400000000003 495.89000000000004 1711.6000000000004 491.81000000000006 Q 1709.0100000000004 489.05000000000007 1706.5600000000004 486.18000000000006 C 1702.8896723791051 481.95613392252864 1699.0602457430575 477.8731912374046 1695.0800000000004 473.93999999999994 Q 1693.5600000000004 472.44000000000005 1692.0500000000004 470.9100000000001 C 1687.8343613674037 466.70576535655823 1683.4577597254884 462.6660819812842 1678.9300000000005 458.8000000000001 L 1675.5300000000004 455.8400000000001 C 1666.3389511193973 447.8365930945992 1656.8208171526226 440.2167480262104 1647 432.99999999999994 L 1645.88 432.17 C 1623.4388650800383 415.51455020462333 1599.6001518393318 400.82990284834807 1574.6300000000003 388.28000000000003 C 1552.357169114719 377.10268804169147 1529.1569077056165 367.8781249172473 1505.2900000000002 360.71 C 1479.6714741306303 353.0972762897907 1453.4941851951553 347.5100684968187 1426.9999999999998 344 L 1425.72 343.83 C 1407.59 341.46999999999997 1389.22 341.01 1371 340 z" stroke-linecap="round" />
</g>
		<g transform="matrix(0.1701081249093005 0 0 0.1701081249093005 85.22390366820845 -67.03371320767343)"  >
<path style="stroke: none; stroke-width: 1; stroke-dasharray: none; stroke-linecap: butt; stroke-dashoffset: 0; stroke-linejoin: miter; stroke-miterlimit: 4; fill: rgb(0,0,0); fill-rule: nonzero; opacity: 1;"  paint-order="stroke"  transform=" translate(-1541.5627430793083, -628.5)" d="M 1371 458 C 1393.63 458 1393.63 458 1401.31 458.69 L 1402.77 458.81 C 1422.37 460.54 1441.97 463.97 1460.97 469.03000000000003 C 1479.515441454924 474.1370983825433 1497.5910640144843 480.81801976907707 1514.9999999999998 488.9999999999999 C 1532.78 497.44 1550.01 507.14 1566.07 518.54 C 1574.9492626312008 524.8940948757414 1583.50966605724 531.6823446100743 1591.72 538.8800000000001 Q 1593.3600000000001 540.32 1595.04 541.74 C 1605.18 550.39 1615.1399999999999 559.49 1623.8 569.62 Q 1625.47 571.53 1627.1599999999999 573.42 C 1639.4278582559891 587.1072824074278 1650.4859308189439 601.8324192756772 1660.2099999999998 617.43 C 1671.11 635.03 1680.7499999999998 653.15 1688.4199999999998 672.38 C 1695.7350312333676 690.7659508376292 1701.4593500749295 709.7455304917384 1705.5299999999997 729.1099999999999 C 1706.8757676290033 735.7770317940951 1708.0993061713148 742.4681540132206 1709.1999999999998 749.1799999999997 Q 1710.2699999999998 755.5600000000001 1710.9999999999998 762.0000000000001 L 1711.1699999999998 763.4500000000002 C 1712.4699999999998 774.9100000000002 1712.1 786.4900000000001 1711.9999999999998 798.0000000000001 L 1710.9999999999998 799.0000000000001 L 1594.9999999999998 799.0000000000001 L 1593.9999999999998 798.0000000000001 L 1593.9499999999998 797.0900000000001 C 1593.08 780.9900000000001 1591.9499999999998 765.0700000000002 1588.3199999999997 749.3200000000002 C 1585.2099999999998 736.2800000000002 1581.3099999999997 723.3300000000002 1575.9999999999998 711.0000000000001 C 1571.1699999999998 699.8700000000001 1565.8999999999999 688.9700000000001 1559.2599999999998 678.8000000000001 C 1552.6599999999999 668.85 1545.5199999999998 659.22 1537.3399999999997 650.5000000000001 L 1533.7799999999997 646.8000000000001 L 1531.3299999999997 644.2400000000001 C 1523.8699999999997 636.3400000000001 1516.1299999999997 629.0700000000002 1507.3999999999996 622.5700000000002 C 1499.8817052357238 617.055254393399 1492.0484269405947 611.9833235620688 1483.9399999999996 607.3800000000001 C 1472.5099999999995 600.7500000000001 1460.6399999999996 595.4500000000002 1448.2399999999996 590.8700000000001 C 1436.537082575558 586.6427207469632 1424.5156296349744 583.3556308330288 1412.2899999999995 581.0400000000001 C 1398.5399999999995 578.6400000000001 1385.0399999999995 578.0400000000001 1370.9999999999995 577.0000000000001 z" stroke-linecap="round" />
</g>
</g>
</g>
<g transform="matrix(1.9211538461538462 0 0 1.9211538461538462 639.6362390688253 615.5634831546189)" id="text-logo"  >
<g style=""  paint-order="stroke"   >
		<g transform="matrix(1 0 0 1 5.684342e-14 0)" id="text-logo-path-0"  >
<path style="stroke: none; stroke-width: 0; stroke-dasharray: none; stroke-linecap: butt; stroke-dashoffset: 0; stroke-linejoin: miter; stroke-miterlimit: 4; fill: rgb(0,0,0); fill-rule: nonzero; opacity: 1;"  paint-order="stroke"  transform=" translate(-194.74499999999998, 16.425)" d="M 3.06 -24.91 L 10.81 -24.91 L 10.81 -0.66 C 10.81 -0.28 11.14 0.05 11.52 0.05 L 18.57 0.05 C 18.94 0.05 19.32 -0.28 19.32 -0.66 L 19.32 -24.91 L 27.07 -24.91 C 27.45 -24.91 27.78 -25.24 27.78 -25.61 L 27.78 -32.2 C 27.78 -32.57 27.45 -32.9 27.07 -32.9 L 3.06 -32.9 C 2.68 -32.9 2.35 -32.57 2.35 -32.2 L 2.35 -25.61 C 2.35 -25.24 2.68 -24.91 3.06 -24.91 Z M 55.98 -16.45 L 55.74 -16.45 C 56.92 -16.45 57.86 -17.39 57.86 -18.57 L 57.86 -28.91 C 57.72 -31.11 55.88 -32.9 53.63 -32.9 L 35.53 -32.9 C 35.16 -32.9 34.83 -32.57 34.83 -32.2 L 34.83 -0.66 C 34.83 -0.28 35.16 0.05 35.53 0.05 L 42.58 0.05 C 42.96 0.05 43.29 -0.28 43.29 -0.66 L 43.29 -8.41 L 51.04 -8.41 C 51.42 -8.41 51.79 -8.08 51.79 -7.71 L 51.79 -0.66 C 51.79 -0.28 52.12 0.05 52.5 0.05 L 59.55 0.05 C 59.92 0.05 60.25 -0.28 60.25 -0.66 L 60.25 -12.17 C 60.25 -14.52 58.33 -16.45 55.98 -16.45 Z M 48.69 -16.45 L 43.29 -16.45 L 43.29 -24.91 L 48.69 -24.91 C 49.07 -24.91 49.4 -24.58 49.4 -24.2 L 49.4 -17.16 C 49.4 -16.78 49.07 -16.45 48.69 -16.45 Z M 75.58 -32.52 L 67.4 -16.17 C 67.35 -16.07 67.3 -15.98 67.3 -15.89 L 67.3 -0.66 C 67.3 -0.28 67.63 0.05 68.01 0.05 L 75.06 0.05 C 75.43 0.05 75.76 -0.28 75.76 -0.66 L 75.76 -7.99 L 84.27 -7.99 L 84.27 -0.66 C 84.27 -0.28 84.6 0.05 84.98 0.05 L 92.03 0.05 C 92.4 0.05 92.73 -0.28 92.73 -0.66 L 92.73 -15.89 C 92.73 -15.98 92.68 -16.07 92.64 -16.17 L 84.46 -32.52 C 84.32 -32.76 84.08 -32.9 83.8 -32.9 L 76.23 -32.9 C 75.95 -32.9 75.72 -32.76 75.58 -32.52 Z M 76.28 -17.01 L 79.38 -23.22 C 79.52 -23.5 79.76 -23.59 80.04 -23.59 C 80.28 -23.59 80.51 -23.5 80.65 -23.22 L 83.75 -17.06 C 83.99 -16.59 83.61 -16.03 83.1 -16.03 L 76.94 -15.98 C 76.42 -15.98 76.05 -16.54 76.28 -17.01 Z M 122.39 -32.9 L 104.01 -32.9 C 101.66 -32.9 99.78 -30.97 99.78 -28.62 L 99.78 -4.23 C 99.78 -1.88 101.71 0.05 104.06 0.05 L 108.24 0.05 L 108.24 0 L 122.39 0 C 122.76 0 123.09 -0.33 123.09 -0.7 L 123.09 -7.29 C 123.09 -7.66 122.76 -7.99 122.39 -7.99 L 108.95 -7.99 C 108.57 -7.99 108.24 -8.32 108.24 -8.7 L 108.24 -24.2 C 108.24 -24.58 108.57 -24.91 108.95 -24.91 L 122.39 -24.91 C 122.76 -24.91 123.09 -25.24 123.09 -25.61 L 123.09 -32.2 C 123.09 -32.57 122.76 -32.9 122.39 -32.9 Z M 147.11 -32.2 L 147.11 -21.34 L 142.83 -14.66 L 138.6 -21.34 L 138.6 -32.2 C 138.6 -32.57 138.27 -32.9 137.9 -32.9 L 130.85 -32.9 C 130.47 -32.9 130.14 -32.57 130.14 -32.2 L 130.14 -21.57 C 130.14 -21.43 130.14 -21.29 130.24 -21.2 L 138.51 -8.18 C 138.6 -8.08 138.6 -7.94 138.6 -7.8 L 138.6 0.05 L 147.11 0.05 L 147.11 -7.8 C 147.11 -7.94 147.11 -8.08 147.2 -8.18 L 155.43 -21.2 C 155.52 -21.29 155.57 -21.43 155.57 -21.57 L 155.57 -32.2 C 155.57 -32.57 155.24 -32.9 154.86 -32.9 L 147.81 -32.9 C 147.44 -32.9 147.11 -32.57 147.11 -32.2 Z M 179.59 -32.2 L 179.59 -20.77 L 171.08 -20.77 L 171.08 -32.2 C 171.08 -32.57 170.75 -32.9 170.37 -32.9 L 163.32 -32.9 C 162.95 -32.9 162.62 -32.57 162.62 -32.2 L 162.62 -0.66 C 162.62 -0.28 162.95 0.05 163.32 0.05 L 170.37 0.05 C 170.75 0.05 171.08 -0.28 171.08 -0.66 L 171.08 -12.78 L 179.59 -12.78 L 179.59 -0.66 C 179.59 -0.28 179.92 0.05 180.29 0.05 L 187.34 0.05 C 187.72 0.05 188.05 -0.28 188.05 -0.66 L 188.05 -32.2 C 188.05 -32.57 187.72 -32.9 187.34 -32.9 L 180.29 -32.9 C 179.92 -32.9 179.59 -32.57 179.59 -32.2 Z M 216.29 -32.9 L 199.33 -32.9 C 196.98 -32.9 195.1 -30.97 195.1 -28.62 L 195.1 -4.23 C 195.1 -1.88 197.02 0.05 199.37 0.05 L 203.56 0.05 L 203.56 0 L 212.06 0 L 212.06 0.05 L 216.25 0.05 C 218.6 0.05 220.52 -1.88 220.52 -4.23 L 220.52 -28.62 C 220.52 -30.97 218.64 -32.9 216.29 -32.9 Z M 203.56 -8.7 L 203.56 -24.2 C 203.56 -24.58 203.89 -24.91 204.26 -24.91 L 211.31 -24.91 C 211.69 -24.91 212.06 -24.58 212.06 -24.2 L 212.06 -8.7 C 212.06 -8.32 211.69 -7.99 211.31 -7.99 L 204.26 -7.99 C 203.89 -7.99 203.56 -8.32 203.56 -8.7 Z M 261.46 -0.66 L 261.46 -32.9 L 253 -32.9 L 245.15 -17.48 C 245.01 -17.25 244.78 -17.11 244.54 -17.11 C 244.26 -17.11 244.02 -17.25 243.88 -17.48 L 236.22 -32.52 C 236.08 -32.76 235.89 -32.9 235.61 -32.9 L 228.28 -32.9 C 227.9 -32.9 227.57 -32.57 227.57 -32.2 L 227.57 -0.66 C 227.57 -0.28 227.9 0.05 228.28 0.05 L 235.33 0.05 C 235.7 0.05 236.03 -0.28 236.03 -0.66 L 236.03 -16.26 L 240.08 -8.32 C 240.22 -8.08 240.45 -7.94 240.73 -7.94 L 248.3 -7.94 C 248.58 -7.94 248.82 -8.08 248.96 -8.32 L 253 -16.26 L 253 -0.66 C 253 -0.28 253.33 0.05 253.71 0.05 L 260.76 0.05 C 261.13 0.05 261.46 -0.28 261.46 -0.66 Z M 289 -32.9 L 269.22 -32.9 C 268.84 -32.9 268.51 -32.57 268.51 -32.2 L 268.51 -0.66 C 268.51 -0.28 268.84 0.05 269.22 0.05 L 289 0.05 C 289.38 0.05 289.71 -0.28 289.71 -0.66 L 289.71 -7.24 C 289.71 -7.61 289.38 -7.94 289 -7.94 L 276.97 -7.94 L 276.97 -12.41 L 284.73 -12.41 C 285.1 -12.41 285.48 -12.78 285.48 -13.16 L 285.48 -19.69 C 285.48 -20.07 285.1 -20.45 284.73 -20.45 L 276.97 -20.45 L 276.97 -24.91 L 289 -24.91 C 289.38 -24.91 289.71 -25.24 289.71 -25.61 L 289.71 -32.2 C 289.71 -32.57 289.38 -32.9 289 -32.9 Z M 313.73 -15.7 L 313.73 -7.99 L 305.22 -7.99 L 305.22 -32.2 C 305.22 -32.57 304.89 -32.9 304.51 -32.9 L 297.46 -32.9 C 297.09 -32.9 296.76 -32.57 296.76 -32.2 L 296.76 -0.66 C 296.76 -0.28 297.09 0.05 297.46 0.05 L 305.22 0.05 L 305.22 0 L 321.48 0 C 321.86 0 322.19 -0.33 322.19 -0.7 L 322.19 -15.7 C 322.19 -16.07 321.86 -16.45 321.48 -16.45 L 314.43 -16.45 C 314.05 -16.45 313.73 -16.07 313.73 -15.7 Z M 337.51 -32.52 L 329.33 -16.17 C 329.28 -16.07 329.24 -15.98 329.24 -15.89 L 329.24 -0.66 C 329.24 -0.28 329.56 0.05 329.94 0.05 L 336.99 0.05 C 337.37 0.05 337.7 -0.28 337.7 -0.66 L 337.7 -7.99 L 346.2 -7.99 L 346.2 -0.66 C 346.2 -0.28 346.53 0.05 346.91 0.05 L 353.96 0.05 C 354.33 0.05 354.66 -0.28 354.66 -0.66 L 354.66 -15.89 C 354.66 -15.98 354.62 -16.07 354.57 -16.17 L 346.39 -32.52 C 346.25 -32.76 346.01 -32.9 345.73 -32.9 L 338.17 -32.9 C 337.88 -32.9 337.65 -32.76 337.51 -32.52 Z M 338.21 -17.01 L 341.31 -23.22 C 341.46 -23.5 341.69 -23.59 341.97 -23.59 C 342.21 -23.59 342.44 -23.5 342.58 -23.22 L 345.69 -17.06 C 345.92 -16.59 345.54 -16.03 345.03 -16.03 L 338.87 -15.98 C 338.35 -15.98 337.98 -16.54 338.21 -17.01 Z M 383.66 -20.4 C 384.27 -21.15 384.6 -22.04 384.6 -23.08 L 384.6 -28.62 C 384.6 -30.97 382.67 -32.9 380.32 -32.9 L 362.42 -32.9 C 362.04 -32.9 361.71 -32.57 361.71 -32.2 L 361.71 -0.66 C 361.71 -0.28 362.04 0.05 362.42 0.05 L 370.17 0.05 L 370.17 0 L 378.68 0 L 378.68 0.05 L 382.86 0.05 C 385.21 0.05 387.14 -1.88 387.14 -4.23 L 387.14 -16.21 C 387.14 -18.28 385.64 -20.02 383.66 -20.4 Z M 375.06 -20.45 L 370.17 -20.45 L 370.17 -24.91 L 375.06 -24.91 C 375.44 -24.91 375.77 -24.58 375.77 -24.2 L 375.77 -21.15 C 375.77 -20.77 375.44 -20.45 375.06 -20.45 Z M 378.68 -11.75 L 378.68 -8.7 C 378.68 -8.32 378.3 -7.99 377.93 -7.99 L 370.17 -7.99 L 370.17 -12.46 L 377.93 -12.46 C 378.3 -12.46 378.68 -12.13 378.68 -11.75 Z" stroke-linecap="round" />
</g>
</g>
</g>
<g transform="matrix(1.9211538461538462 0 0 1.9211538461538462 639.4164170435849 706.8487345314219)" id="tagline-17010681-394a-435c-859e-febff18d291b-logo"  >
<g style=""  paint-order="stroke"   >
		<g transform="matrix(1 0 0 1 0 0)" id="tagline-17010681-394a-435c-859e-febff18d291b-logo-path-0"  >
<path style="stroke: none; stroke-width: 0; stroke-dasharray: none; stroke-linecap: butt; stroke-dashoffset: 0; stroke-linejoin: miter; stroke-miterlimit: 4; fill: rgb(0,0,0); fill-rule: nonzero; opacity: 1;"  paint-order="stroke"  transform=" translate(-78.435, 11.03)" d="M 1.2 -22.05 L 1.2 0 L 8.61 0 L 8.61 -3.33 L 4.44 -3.33 L 4.44 -9.39 L 7.44 -9.39 L 7.44 -12.93 L 4.44 -12.93 L 4.44 -18.72 L 8.61 -18.72 L 8.61 -22.05 L 1.2 -22.05 Z M 22.4 -6.47 L 19.22 -6.18 Q 19.22 -3.21 20.03 -1.74 L 20.03 -1.74 Q 21.11 0.23 23.92 0.23 L 23.92 0.23 Q 26.37 0.23 27.5 -1.44 L 27.5 -1.44 Q 28.44 -2.83 28.44 -5.3 L 28.44 -5.3 Q 28.44 -6.87 27.47 -8.76 L 27.47 -8.76 Q 26.87 -9.93 25.4 -12.11 L 25.4 -12.11 Q 24.03 -14.12 23.66 -14.77 L 23.66 -14.77 Q 22.85 -16.16 22.85 -17.12 L 22.85 -17.12 Q 22.85 -19.28 23.95 -19.32 L 23.95 -19.32 Q 24.66 -19.32 25.01 -18.3 L 25.01 -18.3 Q 25.26 -17.53 25.26 -16.14 L 25.26 -16.14 L 28.44 -16.44 Q 28.44 -18.78 27.61 -20.35 L 27.61 -20.35 Q 26.57 -22.29 24.01 -22.29 L 24.01 -22.29 Q 23.95 -22.29 23.89 -22.29 L 23.89 -22.29 Q 21.8 -22.25 20.63 -20.61 L 20.63 -20.61 Q 19.68 -19.23 19.68 -17.12 L 19.68 -17.12 Q 19.68 -16.23 19.94 -15.37 L 19.94 -15.37 Q 20.44 -13.65 21.54 -11.94 L 21.54 -11.94 Q 22.62 -10.25 23.57 -8.91 L 23.57 -8.91 Q 24.01 -8.23 24.41 -7.59 L 24.41 -7.59 Q 25.26 -6.06 25.26 -5.16 L 25.26 -5.16 Q 25.26 -2.72 23.92 -2.72 L 23.92 -2.72 Q 23 -2.72 22.66 -3.93 L 22.66 -3.93 Q 22.4 -4.7 22.4 -6.47 L 22.4 -6.47 Z M 38.5 -22.05 L 38.5 -18.72 L 41.56 -18.72 L 41.56 0 L 44.8 0 L 44.8 -18.72 L 47.86 -18.72 L 47.86 -22.05 L 38.5 -22.05 Z M 58.18 -3.33 L 58.18 0 L 61.33 0 L 61.33 -3.33 L 58.18 -3.33 Z M 86.48 -3.21 L 86.48 0 L 95.27 0 L 95.27 -3.21 L 90.14 -3.21 Q 92.03 -6.39 93.32 -9.39 L 93.32 -9.39 Q 95.21 -13.86 95.21 -16.8 L 95.21 -16.8 Q 95.21 -19.35 94.32 -20.7 L 94.32 -20.7 Q 93.23 -22.29 90.89 -22.29 L 90.89 -22.29 Q 88.46 -22.29 87.42 -20.55 L 87.42 -20.55 Q 86.57 -19.13 86.57 -16.6 L 86.57 -16.6 L 86.57 -15.06 L 89.82 -15.06 L 89.82 -16.6 Q 89.82 -17.77 90.03 -18.49 L 90.03 -18.49 Q 90.28 -19.29 90.89 -19.29 L 90.89 -19.29 Q 91.54 -19.29 91.8 -18.38 L 91.8 -18.38 Q 91.98 -17.77 91.98 -16.6 L 91.98 -16.6 Q 91.93 -14.84 91.05 -12.22 L 91.05 -12.22 Q 90.31 -10 89.19 -7.87 L 89.19 -7.87 Q 87.9 -5.38 86.48 -3.21 L 86.48 -3.21 Z M 106.86 -17.52 L 106.86 -4.53 Q 106.9 -3.11 107.39 -2.12 L 107.39 -2.12 Q 107.83 -1.14 108.65 -0.51 L 108.65 -0.51 Q 109.57 0.23 111.17 0.23 L 111.17 0.23 Q 112.73 0.23 113.66 -0.51 L 113.66 -0.51 Q 114.55 -1.19 114.96 -2.12 L 114.96 -2.12 Q 115.44 -3.11 115.49 -4.53 L 115.49 -4.53 L 115.49 -17.52 Q 115.44 -18.91 114.96 -19.89 L 114.96 -19.89 Q 114.54 -20.87 113.66 -21.53 L 113.66 -21.53 Q 112.65 -22.29 111.17 -22.29 L 111.17 -22.29 Q 109.66 -22.29 108.65 -21.53 L 108.65 -21.53 Q 107.84 -20.92 107.39 -19.89 L 107.39 -19.89 Q 106.9 -18.91 106.86 -17.52 L 106.86 -17.52 Z M 110.1 -4.53 L 110.1 -4.53 L 110.1 -17.52 Q 110.1 -18.02 110.21 -18.33 L 110.21 -18.33 Q 110.46 -19.15 111.17 -19.15 L 111.17 -19.15 Q 111.59 -19.15 111.84 -18.9 L 111.84 -18.9 Q 112.25 -18.38 112.25 -17.52 L 112.25 -17.52 L 112.25 -4.53 Q 112.25 -4 112.13 -3.72 L 112.13 -3.72 Q 111.93 -2.92 111.17 -2.92 L 111.17 -2.92 Q 110.77 -2.92 110.54 -3.15 L 110.54 -3.15 Q 110.1 -3.66 110.1 -4.53 Z M 126.76 -3.21 L 126.76 0 L 135.54 0 L 135.54 -3.21 L 130.42 -3.21 Q 132.31 -6.39 133.6 -9.39 L 133.6 -9.39 Q 135.49 -13.86 135.49 -16.8 L 135.49 -16.8 Q 135.49 -19.35 134.59 -20.7 L 134.59 -20.7 Q 133.51 -22.29 131.16 -22.29 L 131.16 -22.29 Q 128.73 -22.29 127.69 -20.55 L 127.69 -20.55 Q 126.84 -19.13 126.84 -16.6 L 126.84 -16.6 L 126.84 -15.06 L 130.1 -15.06 L 130.1 -16.6 Q 130.1 -17.77 130.3 -18.49 L 130.3 -18.49 Q 130.55 -19.29 131.16 -19.29 L 131.16 -19.29 Q 131.81 -19.29 132.07 -18.38 L 132.07 -18.38 Q 132.25 -17.77 132.25 -16.6 L 132.25 -16.6 Q 132.2 -14.84 131.33 -12.22 L 131.33 -12.22 Q 130.58 -10 129.47 -7.87 L 129.47 -7.87 Q 128.18 -5.38 126.76 -3.21 L 126.76 -3.21 Z M 150.46 -6.42 L 147.22 -6.42 Q 147.22 -3.43 147.85 -2.01 L 147.85 -2.01 Q 148.82 0.23 151.44 0.23 L 151.44 0.23 Q 154.03 0.23 155.04 -1.89 L 155.04 -1.89 Q 155.67 -3.18 155.67 -5.52 L 155.67 -5.52 L 155.67 -10.44 Q 155.67 -11.81 155.13 -12.99 L 155.13 -12.99 Q 154.21 -15 152.09 -15 L 152.09 -15 Q 151.73 -15.04 151.41 -14.91 L 151.41 -14.91 Q 150.91 -14.75 150.22 -14.25 L 150.22 -14.25 L 150.22 -18.84 L 155.26 -18.84 L 155.26 -22.05 L 147.43 -22.05 L 147.43 -10.44 L 150.15 -10.44 Q 150.15 -10.88 150.52 -11.46 L 150.52 -11.46 Q 150.94 -12.06 151.41 -12.06 L 151.41 -12.06 Q 151.91 -12.06 152.17 -11.61 Q 152.44 -11.16 152.44 -10.44 L 152.44 -10.44 L 152.44 -5.52 Q 152.44 -3.88 152.2 -3.21 L 152.2 -3.21 Q 151.98 -2.58 151.44 -2.58 L 151.44 -2.58 Q 150.88 -2.58 150.66 -3.24 L 150.66 -3.24 Q 150.46 -3.84 150.46 -5.55 L 150.46 -5.55 L 150.46 -6.42 Z" stroke-linecap="round" />
</g>
</g>
</g>
<g transform="matrix(1.9211538461538462 0 0 1.9211538461538462 639.8847307692307 421.6205433084647)" id="tagline-5392bd15-a68f-49cb-a6cb-566def289ede-logo"  >
<g style=""  paint-order="stroke"   >
		<g transform="matrix(1 0 0 1 0 0)" id="tagline-5392bd15-a68f-49cb-a6cb-566def289ede-logo-path-0"  >
<path style="stroke: none; stroke-width: 0; stroke-dasharray: none; stroke-linecap: butt; stroke-dashoffset: 0; stroke-linejoin: miter; stroke-miterlimit: 4; fill: rgb(28,134,28); fill-rule: nonzero; opacity: 1;"  paint-order="stroke"  transform=" translate(-36.24, 42)" d="M 45.84 -66 L 71.04 -66 L 71.04 -84 L 1.44 -84 L 1.44 -66 L 26.64 -66 L 26.64 0 L 45.84 0 Z" stroke-linecap="round" />
</g>
</g>
</g>
</svg>