<svg version="1.2" xmlns="http://www.w3.org/2000/svg" viewBox="0 0 1543 473" width="1543" height="473"><style></style><path fill-rule="evenodd" d="m970 114c-31.6 0-57.1-25.5-57.1-57 0-31.5 25.5-57 57.1-57 31.5 0 57 25.5 57 57 0 31.5-25.5 57-57 57z"/><path fill-rule="evenodd" d="m1485.1 114c-31.6 0-57.1-25.5-57.1-57 0-31.5 25.5-57 57.1-57 31.5 0 57 25.5 57 57 0 31.5-25.5 57-57 57z"/><path fill-rule="evenodd" d="m1019.4 153.9v315.4h-98.8v-315.4z"/><path  d="m1381.8 14h-279.8v455.3h98.8v-172h152.3v-86.1h-152.3v-111.1h181z"/><path fill-rule="evenodd" d="m1534.5 153.9v315.4h-98.8v-315.4z"/><path  d="m345.5 211.2v-57.4h57.4v-57.4h57.4v57.4h-57.4v57.3h57.4v18.2c0 21-1.7 45.9-5.9 65.4-2.3 11-5.8 21.8-9.8 32.3q-3.9 9.7-8.4 18.9l-1.3 2.5q-0.6 1.3-1.3 2.6l-0.8 1.5q-0.6 1-1.1 1.9-0.7 1.3-1.4 2.6c-6.9 12-14.8 23.5-24.1 34.3l-1.1 1.2v0.1c-2.3 2.7-4.5 5.3-7 7.8-2.8 3-5.7 5.9-8.6 8.7-36.8 35.3-84.6 57.4-134.7 62.5-6 0.6-18.1 1.2-24.2 1.2-3 0-7.7-0.2-12.3-0.4-4.4-0.2-8.9-0.5-11.8-0.8-50.1-5.1-97.9-27.2-134.7-62.5l-1.1-1.1c-2.6-2.5-5.1-5-7.5-7.6-2.9-3-5.4-6-8.1-9.1-9.2-10.8-17.2-22.3-24-34.3q-2.4-4.2-4.7-8.7-2-4-3.9-8.1-1.4-3-2.7-6.1-0.6-1.4-1.2-2.8l-0.6-1.5-0.6-1.3-0.6-1.5c-4.1-10.5-7.6-21.3-9.9-32.3-4.1-19.5-5.9-44.4-5.9-65.4v-215.3h114.8v197.2 3.7c0 2.1 0 4.8 0 7.5 0 3.5 0.1 7 0.2 8.9 0.2 6.8 0.5 13.4 1.2 20 1.9 17.8 5.8 34.5 13.9 48.8 2.3 4.1 4.7 8 7.5 11.8 17.3 23 43.5 40.3 76.3 45.1 3.9 0.6 11.8 1.1 15.7 1.1 4 0 11.9-0.5 15.8-1.1 32.7-4.8 59-22.1 76.3-45.1 1.7-2.3 3.3-4.6 4.7-7q1.5-2.4 2.8-4.8c8.1-14.3 12.1-31 13.9-48.8 0.7-6.6 1-13.2 1.2-20 0.1-2.3 0.2-6.9 0.2-11v-6.1z"/><path  d="m402.9 96.4h-43.1v-43h43.1z"/><path  d="m417.2 10.4h28.7v28.7h-28.7z"/><path  d="m837.9 469.3h-98.1v-185.5c0 0 0-6.5-0.1-8.6v-0.1c-0.1-2.9-0.2-5.7-0.5-8.5-0.7-7.6-2.4-14.8-5.9-20.9l-0.2-0.4-0.1-0.1c-0.9-1.6-1.8-3.2-3-4.7-7.4-9.9-18.7-17.3-32.8-19.3-0.6-0.1-1.5-0.2-2.4-0.3l-1.1-0.1c-1.2-0.1-2.4-0.1-3.2-0.1-1 0-2.6 0.1-4.1 0.2-1 0.1-2 0.2-2.7 0.3-14.1 2-25.4 9.4-32.8 19.3q-0.4 0.6-0.8 1.1-0.4 0.6-0.8 1.2-0.8 1.4-1.6 2.9c-3.5 6.1-5.2 13.3-6 20.9-0.4 2.9-0.5 5.7-0.5 8.6-0.1 2.1-0.1 8.6-0.1 8.6v185.2h-98.1v-315.5h94.5v28.7c0 0 33.6-41.9 100.8-38.9 60.4 2.6 99.6 49 99.6 111.8z"/></svg>